ISO-10303-21;
HEADER;
/* Generated by software containing ST-Developer
 * from STEP Tools, Inc. (www.steptools.com) 
 */

FILE_DESCRIPTION(
/* description */ (''),
/* implementation_level */ '2;1');

FILE_NAME(
/* name */ 'BackSen-TpuPart.stp',
/* time_stamp */ '2026-09-26T13:37:45+02:00',
/* author */ ('Vadim'),
/* organization */ (''),
/* preprocessor_version */ 'ST-DEVELOPER v20.2',
/* originating_system */ 'Autodesk Inventor 2027',
/* authorisation */ '');

FILE_SCHEMA (('AUTOMOTIVE_DESIGN { 1 0 10303 214 3 1 1 }'));
ENDSEC;

DATA;
#10=MECHANICAL_DESIGN_GEOMETRIC_PRESENTATION_REPRESENTATION('',(#13),#360);
#11=SHAPE_REPRESENTATION_RELATIONSHIP('SRR','None',#367,#12);
#12=ADVANCED_BREP_SHAPE_REPRESENTATION('',(#14),#359);
#13=STYLED_ITEM('',(#376),#14);
#14=MANIFOLD_SOLID_BREP('T\X2\011B\X0\leso1',#195);
#15=FACE_BOUND('',#69,.T.);
#16=FACE_BOUND('',#70,.T.);
#17=FACE_BOUND('',#72,.T.);
#18=FACE_BOUND('',#78,.T.);
#19=PLANE('',#229);
#20=PLANE('',#232);
#21=PLANE('',#237);
#22=PLANE('',#238);
#23=PLANE('',#239);
#24=CONICAL_SURFACE('',#224,1.8,0.785398163397448);
#25=LINE('',#317,#37);
#26=LINE('',#319,#38);
#27=LINE('',#322,#39);
#28=LINE('',#327,#40);
#29=LINE('',#332,#41);
#30=LINE('',#335,#42);
#31=LINE('',#338,#43);
#32=LINE('',#345,#44);
#33=LINE('',#348,#45);
#34=LINE('',#351,#46);
#35=LINE('',#353,#47);
#36=LINE('',#355,#48);
#37=VECTOR('',#252,2.95);
#38=VECTOR('',#253,10.);
#39=VECTOR('',#256,10.);
#40=VECTOR('',#261,1.8);
#41=VECTOR('',#268,1.55);
#42=VECTOR('',#271,10.);
#43=VECTOR('',#274,10.);
#44=VECTOR('',#283,1.35);
#45=VECTOR('',#286,10.);
#46=VECTOR('',#289,10.);
#47=VECTOR('',#292,10.);
#48=VECTOR('',#295,10.);
#49=CYLINDRICAL_SURFACE('',#221,2.95);
#50=CYLINDRICAL_SURFACE('',#227,1.55);
#51=CYLINDRICAL_SURFACE('',#233,1.35);
#52=CYLINDRICAL_SURFACE('',#235,2.95);
#53=FACE_OUTER_BOUND('',#64,.T.);
#54=FACE_OUTER_BOUND('',#65,.T.);
#55=FACE_OUTER_BOUND('',#66,.T.);
#56=FACE_OUTER_BOUND('',#67,.T.);
#57=FACE_OUTER_BOUND('',#68,.T.);
#58=FACE_OUTER_BOUND('',#71,.T.);
#59=FACE_OUTER_BOUND('',#73,.T.);
#60=FACE_OUTER_BOUND('',#74,.T.);
#61=FACE_OUTER_BOUND('',#75,.T.);
#62=FACE_OUTER_BOUND('',#76,.T.);
#63=FACE_OUTER_BOUND('',#77,.T.);
#64=EDGE_LOOP('',(#133,#134,#135,#136));
#65=EDGE_LOOP('',(#137,#138,#139,#140,#141,#142,#143));
#66=EDGE_LOOP('',(#144,#145,#146,#147));
#67=EDGE_LOOP('',(#148,#149,#150,#151));
#68=EDGE_LOOP('',(#152,#153,#154,#155));
#69=EDGE_LOOP('',(#156));
#70=EDGE_LOOP('',(#157));
#71=EDGE_LOOP('',(#158));
#72=EDGE_LOOP('',(#159));
#73=EDGE_LOOP('',(#160,#161,#162,#163));
#74=EDGE_LOOP('',(#164,#165,#166,#167));
#75=EDGE_LOOP('',(#168,#169,#170,#171,#172));
#76=EDGE_LOOP('',(#173,#174,#175,#176,#177));
#77=EDGE_LOOP('',(#178,#179,#180,#181));
#78=EDGE_LOOP('',(#182));
#79=CIRCLE('',#219,2.95);
#80=CIRCLE('',#220,3.45);
#81=CIRCLE('',#222,2.95);
#82=CIRCLE('',#223,2.95);
#83=CIRCLE('',#225,1.55);
#84=CIRCLE('',#226,2.05);
#85=CIRCLE('',#228,1.55);
#86=CIRCLE('',#230,2.95);
#87=CIRCLE('',#231,1.35);
#88=CIRCLE('',#234,1.35);
#89=CIRCLE('',#236,2.95);
#90=B_SPLINE_CURVE_WITH_KNOTS('',3,(#302,#303,#304,#305),.UNSPECIFIED.,
 .F.,.F.,(4,4),(0.379854018085369,0.556945701861129),.UNSPECIFIED.);
#91=B_SPLINE_CURVE_WITH_KNOTS('',3,(#309,#310,#311,#312),.UNSPECIFIED.,
 .F.,.F.,(4,4),(0.,0.17709168377576),.UNSPECIFIED.);
#92=VERTEX_POINT('',#300);
#93=VERTEX_POINT('',#301);
#94=VERTEX_POINT('',#306);
#95=VERTEX_POINT('',#308);
#96=VERTEX_POINT('',#315);
#97=VERTEX_POINT('',#318);
#98=VERTEX_POINT('',#320);
#99=VERTEX_POINT('',#324);
#100=VERTEX_POINT('',#326);
#101=VERTEX_POINT('',#330);
#102=VERTEX_POINT('',#334);
#103=VERTEX_POINT('',#336);
#104=VERTEX_POINT('',#339);
#105=VERTEX_POINT('',#343);
#106=VERTEX_POINT('',#347);
#107=VERTEX_POINT('',#349);
#108=EDGE_CURVE('',#92,#93,#90,.T.);
#109=EDGE_CURVE('',#93,#94,#79,.T.);
#110=EDGE_CURVE('',#94,#95,#91,.T.);
#111=EDGE_CURVE('',#95,#92,#80,.T.);
#112=EDGE_CURVE('',#96,#96,#81,.T.);
#113=EDGE_CURVE('',#96,#94,#25,.T.);
#114=EDGE_CURVE('',#97,#93,#26,.T.);
#115=EDGE_CURVE('',#97,#98,#82,.T.);
#116=EDGE_CURVE('',#98,#94,#27,.T.);
#117=EDGE_CURVE('',#99,#99,#83,.T.);
#118=EDGE_CURVE('',#99,#100,#28,.T.);
#119=EDGE_CURVE('',#100,#100,#84,.T.);
#120=EDGE_CURVE('',#101,#101,#85,.T.);
#121=EDGE_CURVE('',#101,#99,#29,.T.);
#122=EDGE_CURVE('',#102,#97,#30,.T.);
#123=EDGE_CURVE('',#103,#102,#86,.T.);
#124=EDGE_CURVE('',#98,#103,#31,.T.);
#125=EDGE_CURVE('',#104,#104,#87,.T.);
#126=EDGE_CURVE('',#105,#105,#88,.T.);
#127=EDGE_CURVE('',#105,#104,#32,.T.);
#128=EDGE_CURVE('',#102,#106,#33,.T.);
#129=EDGE_CURVE('',#107,#106,#89,.T.);
#130=EDGE_CURVE('',#103,#107,#34,.T.);
#131=EDGE_CURVE('',#95,#107,#35,.T.);
#132=EDGE_CURVE('',#106,#92,#36,.T.);
#133=ORIENTED_EDGE('',*,*,#108,.T.);
#134=ORIENTED_EDGE('',*,*,#109,.T.);
#135=ORIENTED_EDGE('',*,*,#110,.T.);
#136=ORIENTED_EDGE('',*,*,#111,.T.);
#137=ORIENTED_EDGE('',*,*,#112,.F.);
#138=ORIENTED_EDGE('',*,*,#113,.T.);
#139=ORIENTED_EDGE('',*,*,#109,.F.);
#140=ORIENTED_EDGE('',*,*,#114,.F.);
#141=ORIENTED_EDGE('',*,*,#115,.T.);
#142=ORIENTED_EDGE('',*,*,#116,.T.);
#143=ORIENTED_EDGE('',*,*,#113,.F.);
#144=ORIENTED_EDGE('',*,*,#117,.T.);
#145=ORIENTED_EDGE('',*,*,#118,.T.);
#146=ORIENTED_EDGE('',*,*,#119,.T.);
#147=ORIENTED_EDGE('',*,*,#118,.F.);
#148=ORIENTED_EDGE('',*,*,#120,.F.);
#149=ORIENTED_EDGE('',*,*,#121,.T.);
#150=ORIENTED_EDGE('',*,*,#117,.F.);
#151=ORIENTED_EDGE('',*,*,#121,.F.);
#152=ORIENTED_EDGE('',*,*,#122,.F.);
#153=ORIENTED_EDGE('',*,*,#123,.F.);
#154=ORIENTED_EDGE('',*,*,#124,.F.);
#155=ORIENTED_EDGE('',*,*,#115,.F.);
#156=ORIENTED_EDGE('',*,*,#125,.F.);
#157=ORIENTED_EDGE('',*,*,#119,.F.);
#158=ORIENTED_EDGE('',*,*,#112,.T.);
#159=ORIENTED_EDGE('',*,*,#120,.T.);
#160=ORIENTED_EDGE('',*,*,#126,.F.);
#161=ORIENTED_EDGE('',*,*,#127,.T.);
#162=ORIENTED_EDGE('',*,*,#125,.T.);
#163=ORIENTED_EDGE('',*,*,#127,.F.);
#164=ORIENTED_EDGE('',*,*,#123,.T.);
#165=ORIENTED_EDGE('',*,*,#128,.T.);
#166=ORIENTED_EDGE('',*,*,#129,.F.);
#167=ORIENTED_EDGE('',*,*,#130,.F.);
#168=ORIENTED_EDGE('',*,*,#124,.T.);
#169=ORIENTED_EDGE('',*,*,#130,.T.);
#170=ORIENTED_EDGE('',*,*,#131,.F.);
#171=ORIENTED_EDGE('',*,*,#110,.F.);
#172=ORIENTED_EDGE('',*,*,#116,.F.);
#173=ORIENTED_EDGE('',*,*,#122,.T.);
#174=ORIENTED_EDGE('',*,*,#114,.T.);
#175=ORIENTED_EDGE('',*,*,#108,.F.);
#176=ORIENTED_EDGE('',*,*,#132,.F.);
#177=ORIENTED_EDGE('',*,*,#128,.F.);
#178=ORIENTED_EDGE('',*,*,#111,.F.);
#179=ORIENTED_EDGE('',*,*,#131,.T.);
#180=ORIENTED_EDGE('',*,*,#129,.T.);
#181=ORIENTED_EDGE('',*,*,#132,.T.);
#182=ORIENTED_EDGE('',*,*,#126,.T.);
#183=TOROIDAL_SURFACE('',#218,3.45,0.5);
#184=ADVANCED_FACE('',(#53),#183,.F.);
#185=ADVANCED_FACE('',(#54),#49,.T.);
#186=ADVANCED_FACE('',(#55),#24,.F.);
#187=ADVANCED_FACE('',(#56),#50,.F.);
#188=ADVANCED_FACE('',(#57,#15,#16),#19,.F.);
#189=ADVANCED_FACE('',(#58,#17),#20,.T.);
#190=ADVANCED_FACE('',(#59),#51,.F.);
#191=ADVANCED_FACE('',(#60),#52,.T.);
#192=ADVANCED_FACE('',(#61),#21,.T.);
#193=ADVANCED_FACE('',(#62),#22,.T.);
#194=ADVANCED_FACE('',(#63,#18),#23,.T.);
#195=CLOSED_SHELL('',(#184,#185,#186,#187,#188,#189,#190,#191,#192,#193,
#194));
#196=DERIVED_UNIT_ELEMENT(#199,1.);
#197=DERIVED_UNIT_ELEMENT(#362,-3.);
#198=DIMENSIONAL_EXPONENTS(0.,1.,0.,0.,0.,0.,0.);
#199=(
CONVERSION_BASED_UNIT('gram',#201)
MASS_UNIT()
NAMED_UNIT(#198)
);
#200=(
MASS_UNIT()
NAMED_UNIT(*)
SI_UNIT(.KILO.,.GRAM.)
);
#201=MASS_MEASURE_WITH_UNIT(MASS_MEASURE(0.001),#200);
#202=DERIVED_UNIT((#196,#197));
#203=MEASURE_REPRESENTATION_ITEM('density measure',
POSITIVE_RATIO_MEASURE(1.),#202);
#204=PROPERTY_DEFINITION_REPRESENTATION(#209,#206);
#205=PROPERTY_DEFINITION_REPRESENTATION(#210,#207);
#206=REPRESENTATION('material name',(#208),#359);
#207=REPRESENTATION('density',(#203),#359);
#208=DESCRIPTIVE_REPRESENTATION_ITEM('V\X2\0161\X0\eobecn\X\E9',
'V\X2\0161\X0\eobecn\X\E9');
#209=PROPERTY_DEFINITION('material property','material name',#369);
#210=PROPERTY_DEFINITION('material property','density of part',#369);
#211=DATE_TIME_ROLE('creation_date');
#212=APPLIED_DATE_AND_TIME_ASSIGNMENT(#213,#211,(#369));
#213=DATE_AND_TIME(#214,#215);
#214=CALENDAR_DATE(2026,6,6);
#215=LOCAL_TIME(0,0,0.,#216);
#216=COORDINATED_UNIVERSAL_TIME_OFFSET(0,0,.BEHIND.);
#217=AXIS2_PLACEMENT_3D('',#298,#240,#241);
#218=AXIS2_PLACEMENT_3D('',#299,#242,#243);
#219=AXIS2_PLACEMENT_3D('',#307,#244,#245);
#220=AXIS2_PLACEMENT_3D('',#313,#246,#247);
#221=AXIS2_PLACEMENT_3D('',#314,#248,#249);
#222=AXIS2_PLACEMENT_3D('',#316,#250,#251);
#223=AXIS2_PLACEMENT_3D('',#321,#254,#255);
#224=AXIS2_PLACEMENT_3D('',#323,#257,#258);
#225=AXIS2_PLACEMENT_3D('',#325,#259,#260);
#226=AXIS2_PLACEMENT_3D('',#328,#262,#263);
#227=AXIS2_PLACEMENT_3D('',#329,#264,#265);
#228=AXIS2_PLACEMENT_3D('',#331,#266,#267);
#229=AXIS2_PLACEMENT_3D('',#333,#269,#270);
#230=AXIS2_PLACEMENT_3D('',#337,#272,#273);
#231=AXIS2_PLACEMENT_3D('',#340,#275,#276);
#232=AXIS2_PLACEMENT_3D('',#341,#277,#278);
#233=AXIS2_PLACEMENT_3D('',#342,#279,#280);
#234=AXIS2_PLACEMENT_3D('',#344,#281,#282);
#235=AXIS2_PLACEMENT_3D('',#346,#284,#285);
#236=AXIS2_PLACEMENT_3D('',#350,#287,#288);
#237=AXIS2_PLACEMENT_3D('',#352,#290,#291);
#238=AXIS2_PLACEMENT_3D('',#354,#293,#294);
#239=AXIS2_PLACEMENT_3D('',#356,#296,#297);
#240=DIRECTION('axis',(0.,0.,1.));
#241=DIRECTION('refdir',(1.,0.,0.));
#242=DIRECTION('center_axis',(0.,-1.,0.));
#243=DIRECTION('ref_axis',(0.,0.,-1.));
#244=DIRECTION('center_axis',(0.,-1.,0.));
#245=DIRECTION('ref_axis',(6.12323399573677E-17,0.,-1.));
#246=DIRECTION('center_axis',(0.,1.,0.));
#247=DIRECTION('ref_axis',(6.12323399573677E-17,0.,-1.));
#248=DIRECTION('center_axis',(0.,1.,0.));
#249=DIRECTION('ref_axis',(-1.,0.,0.));
#250=DIRECTION('center_axis',(0.,1.,0.));
#251=DIRECTION('ref_axis',(-1.,0.,0.));
#252=DIRECTION('',(0.,-1.,0.));
#253=DIRECTION('',(0.,1.,0.));
#254=DIRECTION('center_axis',(0.,1.,0.));
#255=DIRECTION('ref_axis',(-1.,0.,0.));
#256=DIRECTION('',(0.,1.,0.));
#257=DIRECTION('center_axis',(0.,-1.,0.));
#258=DIRECTION('ref_axis',(1.,0.,0.));
#259=DIRECTION('center_axis',(0.,1.,0.));
#260=DIRECTION('ref_axis',(1.,0.,0.));
#261=DIRECTION('',(-0.707106781186547,-0.707106781186548,8.65956056235493E-17));
#262=DIRECTION('center_axis',(0.,-1.,0.));
#263=DIRECTION('ref_axis',(1.,0.,0.));
#264=DIRECTION('center_axis',(0.,1.,0.));
#265=DIRECTION('ref_axis',(1.,0.,0.));
#266=DIRECTION('center_axis',(0.,-1.,0.));
#267=DIRECTION('ref_axis',(1.,0.,0.));
#268=DIRECTION('',(0.,-1.,0.));
#269=DIRECTION('center_axis',(0.,1.,0.));
#270=DIRECTION('ref_axis',(0.,0.,1.));
#271=DIRECTION('',(-5.04646829375071E-17,0.,1.));
#272=DIRECTION('center_axis',(0.,1.,0.));
#273=DIRECTION('ref_axis',(-1.,0.,0.));
#274=DIRECTION('',(5.04646829375071E-17,0.,-1.));
#275=DIRECTION('center_axis',(0.,-1.,0.));
#276=DIRECTION('ref_axis',(1.,0.,0.));
#277=DIRECTION('center_axis',(0.,1.,0.));
#278=DIRECTION('ref_axis',(0.,0.,1.));
#279=DIRECTION('center_axis',(0.,1.,0.));
#280=DIRECTION('ref_axis',(1.,0.,0.));
#281=DIRECTION('center_axis',(0.,-1.,0.));
#282=DIRECTION('ref_axis',(1.,0.,0.));
#283=DIRECTION('',(0.,-1.,0.));
#284=DIRECTION('center_axis',(0.,1.,0.));
#285=DIRECTION('ref_axis',(-1.,0.,0.));
#286=DIRECTION('',(0.,1.,0.));
#287=DIRECTION('center_axis',(0.,1.,0.));
#288=DIRECTION('ref_axis',(-1.,0.,0.));
#289=DIRECTION('',(0.,1.,0.));
#290=DIRECTION('center_axis',(1.,0.,5.04646829375071E-17));
#291=DIRECTION('ref_axis',(5.04646829375071E-17,0.,-1.));
#292=DIRECTION('',(5.04646829375071E-17,0.,-1.));
#293=DIRECTION('center_axis',(-1.,0.,-5.04646829375071E-17));
#294=DIRECTION('ref_axis',(-5.04646829375071E-17,0.,1.));
#295=DIRECTION('',(-5.04646829375071E-17,0.,1.));
#296=DIRECTION('center_axis',(0.,1.,0.));
#297=DIRECTION('ref_axis',(0.,0.,1.));
#298=CARTESIAN_POINT('',(0.,0.,0.));
#299=CARTESIAN_POINT('Origin',(0.,1.75,11.));
#300=CARTESIAN_POINT('',(-2.95,1.25,9.21114561800017));
#301=CARTESIAN_POINT('',(-2.95,1.75,11.));
#302=CARTESIAN_POINT('Ctrl Pts',(-2.95,1.25,9.21114561800017));
#303=CARTESIAN_POINT('Ctrl Pts',(-2.95,1.25,9.80145123058603));
#304=CARTESIAN_POINT('Ctrl Pts',(-2.95,1.525274493927,10.4541436423649));
#305=CARTESIAN_POINT('Ctrl Pts',(-2.95,1.75,11.));
#306=CARTESIAN_POINT('',(2.95,1.75,11.));
#307=CARTESIAN_POINT('Origin',(0.,1.75,11.));
#308=CARTESIAN_POINT('',(2.95,1.25,9.21114561800017));
#309=CARTESIAN_POINT('Ctrl Pts',(2.95,1.75,11.));
#310=CARTESIAN_POINT('Ctrl Pts',(2.95,1.525274493927,10.4541436423649));
#311=CARTESIAN_POINT('Ctrl Pts',(2.95,1.25,9.80145123058603));
#312=CARTESIAN_POINT('Ctrl Pts',(2.95,1.25,9.21114561800017));
#313=CARTESIAN_POINT('Origin',(0.,1.25,11.));
#314=CARTESIAN_POINT('Origin',(0.,0.,11.));
#315=CARTESIAN_POINT('',(2.95,3.25,11.));
#316=CARTESIAN_POINT('Origin',(0.,3.25,11.));
#317=CARTESIAN_POINT('',(2.95,0.,11.));
#318=CARTESIAN_POINT('',(-2.95,0.,11.));
#319=CARTESIAN_POINT('',(-2.95,0.,11.));
#320=CARTESIAN_POINT('',(2.95,0.,11.));
#321=CARTESIAN_POINT('Origin',(0.,0.,11.));
#322=CARTESIAN_POINT('',(2.95,0.,11.));
#323=CARTESIAN_POINT('Origin',(0.,0.25,11.));
#324=CARTESIAN_POINT('',(-1.55,0.5,11.));
#325=CARTESIAN_POINT('Origin',(0.,0.5,11.));
#326=CARTESIAN_POINT('',(-2.05,0.,11.));
#327=CARTESIAN_POINT('',(-1.8,0.25,11.));
#328=CARTESIAN_POINT('Origin',(0.,0.,11.));
#329=CARTESIAN_POINT('Origin',(0.,0.,11.));
#330=CARTESIAN_POINT('',(-1.55,3.25,11.));
#331=CARTESIAN_POINT('Origin',(0.,3.25,11.));
#332=CARTESIAN_POINT('',(-1.55,0.,11.));
#333=CARTESIAN_POINT('Origin',(2.77555756156289E-16,0.,4.025));
#334=CARTESIAN_POINT('',(-2.95,0.,2.85098543301478E-19));
#335=CARTESIAN_POINT('',(-2.95,0.,0.));
#336=CARTESIAN_POINT('',(2.95,0.,-2.58173374968766E-19));
#337=CARTESIAN_POINT('Origin',(0.,0.,0.));
#338=CARTESIAN_POINT('',(2.95,0.,11.));
#339=CARTESIAN_POINT('',(-1.35,0.,1.65327317884893E-16));
#340=CARTESIAN_POINT('Origin',(0.,0.,0.));
#341=CARTESIAN_POINT('Origin',(0.,3.25,11.));
#342=CARTESIAN_POINT('Origin',(0.,0.,0.));
#343=CARTESIAN_POINT('',(-1.35,1.25,1.65327317884893E-16));
#344=CARTESIAN_POINT('Origin',(0.,1.25,0.));
#345=CARTESIAN_POINT('',(-1.35,0.,1.65327317884893E-16));
#346=CARTESIAN_POINT('Origin',(0.,0.,0.));
#347=CARTESIAN_POINT('',(-2.95,1.25,2.85098543301478E-19));
#348=CARTESIAN_POINT('',(-2.95,0.,2.85098543301478E-19));
#349=CARTESIAN_POINT('',(2.95,1.25,-2.58173374968766E-19));
#350=CARTESIAN_POINT('Origin',(0.,1.25,0.));
#351=CARTESIAN_POINT('',(2.95,0.,-2.58173374968766E-19));
#352=CARTESIAN_POINT('Origin',(2.95,0.,11.));
#353=CARTESIAN_POINT('',(2.95,1.25,11.));
#354=CARTESIAN_POINT('Origin',(-2.95,0.,2.85098543301478E-19));
#355=CARTESIAN_POINT('',(-2.95,1.25,0.));
#356=CARTESIAN_POINT('Origin',(2.77555756156289E-16,1.25,4.025));
#357=UNCERTAINTY_MEASURE_WITH_UNIT(LENGTH_MEASURE(0.01),#361,
'DISTANCE_ACCURACY_VALUE',
'Maximum model space distance between geometric entities at asserted c
onnectivities');
#358=UNCERTAINTY_MEASURE_WITH_UNIT(LENGTH_MEASURE(0.01),#361,
'DISTANCE_ACCURACY_VALUE',
'Maximum model space distance between geometric entities at asserted c
onnectivities');
#359=(
GEOMETRIC_REPRESENTATION_CONTEXT(3)
GLOBAL_UNCERTAINTY_ASSIGNED_CONTEXT((#357))
GLOBAL_UNIT_ASSIGNED_CONTEXT((#361,#363,#364))
REPRESENTATION_CONTEXT('','3D')
);
#360=(
GEOMETRIC_REPRESENTATION_CONTEXT(3)
GLOBAL_UNCERTAINTY_ASSIGNED_CONTEXT((#358))
GLOBAL_UNIT_ASSIGNED_CONTEXT((#361,#363,#364))
REPRESENTATION_CONTEXT('','3D')
);
#361=(
LENGTH_UNIT()
NAMED_UNIT(*)
SI_UNIT(.MILLI.,.METRE.)
);
#362=(
LENGTH_UNIT()
NAMED_UNIT(*)
SI_UNIT(.CENTI.,.METRE.)
);
#363=(
NAMED_UNIT(*)
PLANE_ANGLE_UNIT()
SI_UNIT($,.RADIAN.)
);
#364=(
NAMED_UNIT(*)
SI_UNIT($,.STERADIAN.)
SOLID_ANGLE_UNIT()
);
#365=SHAPE_DEFINITION_REPRESENTATION(#366,#367);
#366=PRODUCT_DEFINITION_SHAPE('',$,#369);
#367=SHAPE_REPRESENTATION('',(#217),#359);
#368=PRODUCT_DEFINITION_CONTEXT('part definition',#373,'design');
#369=PRODUCT_DEFINITION('BackSen-TPUPart','BackSen-TpuPart',#370,#368);
#370=PRODUCT_DEFINITION_FORMATION('',$,#375);
#371=PRODUCT_RELATED_PRODUCT_CATEGORY('BackSen-TpuPart',
'BackSen-TpuPart',(#375));
#372=APPLICATION_PROTOCOL_DEFINITION('international standard',
'automotive_design',2009,#373);
#373=APPLICATION_CONTEXT(
'Core Data for Automotive Mechanical Design Process');
#374=PRODUCT_CONTEXT('part definition',#373,'mechanical');
#375=PRODUCT('BackSen-TPUPart','BackSen-TpuPart',$,(#374));
#376=PRESENTATION_STYLE_ASSIGNMENT((#377));
#377=SURFACE_STYLE_USAGE(.BOTH.,#380);
#378=SURFACE_STYLE_RENDERING_WITH_PROPERTIES($,#384,(#379));
#379=SURFACE_STYLE_TRANSPARENT(0.);
#380=SURFACE_SIDE_STYLE('',(#381,#378));
#381=SURFACE_STYLE_FILL_AREA(#382);
#382=FILL_AREA_STYLE('',(#383));
#383=FILL_AREA_STYLE_COLOUR('',#384);
#384=COLOUR_RGB('',0.749019607843137,0.749019607843137,0.749019607843137);
ENDSEC;
END-ISO-10303-21;
