ISO-10303-21;
HEADER;
/* Generated by software containing ST-Developer
 * from STEP Tools, Inc. (www.steptools.com) 
 */

FILE_DESCRIPTION(
/* description */ (''),
/* implementation_level */ '2;1');

FILE_NAME(
/* name */ 'MotorClamp.stp',
/* time_stamp */ '2026-09-26T13:37:57+02:00',
/* author */ ('Vadim'),
/* organization */ (''),
/* preprocessor_version */ 'ST-DEVELOPER v20.2',
/* originating_system */ 'Autodesk Inventor 2027',
/* authorisation */ '');

FILE_SCHEMA (('AUTOMOTIVE_DESIGN { 1 0 10303 214 3 1 1 }'));
ENDSEC;

DATA;
#10=MECHANICAL_DESIGN_GEOMETRIC_PRESENTATION_REPRESENTATION('',(#13),#1978);
#11=SHAPE_REPRESENTATION_RELATIONSHIP('SRR','None',#1985,#12);
#12=ADVANCED_BREP_SHAPE_REPRESENTATION('',(#14),#1977);
#13=STYLED_ITEM('',(#1995),#14);
#14=MANIFOLD_SOLID_BREP('T\X2\011B\X0\leso1',#1127);
#15=B_SPLINE_CURVE_WITH_KNOTS('',3,(#1859,#1860,#1861,#1862),
 .UNSPECIFIED.,.F.,.F.,(4,4),(-0.036111040523526,0.),.UNSPECIFIED.);
#16=B_SPLINE_CURVE_WITH_KNOTS('',3,(#1866,#1867,#1868,#1869),
 .UNSPECIFIED.,.F.,.F.,(4,4),(-0.0361110405433565,0.),.UNSPECIFIED.);
#17=B_SPLINE_CURVE_WITH_KNOTS('',3,(#1885,#1886,#1887,#1888),
 .UNSPECIFIED.,.F.,.F.,(4,4),(-0.0361110405237203,0.),.UNSPECIFIED.);
#18=B_SPLINE_CURVE_WITH_KNOTS('',3,(#1890,#1891,#1892,#1893),
 .UNSPECIFIED.,.F.,.F.,(4,4),(-0.0361110405431154,0.),.UNSPECIFIED.);
#19=CONICAL_SURFACE('',#1243,6.25,0.785398163397449);
#20=CONICAL_SURFACE('',#1246,6.25,0.785398163397451);
#21=CONICAL_SURFACE('',#1253,6.25,0.785398163397451);
#22=CONICAL_SURFACE('',#1255,6.25,0.785398163397449);
#23=(
BOUNDED_CURVE()
B_SPLINE_CURVE(2,(#1833,#1834,#1835),.UNSPECIFIED.,.F.,.F.)
B_SPLINE_CURVE_WITH_KNOTS((3,3),(0.259247297743256,0.274562454868536),
 .UNSPECIFIED.)
CURVE()
GEOMETRIC_REPRESENTATION_ITEM()
RATIONAL_B_SPLINE_CURVE((2.6949152542373,2.74234980302377,2.78947368421054))
REPRESENTATION_ITEM('')
);
#24=(
BOUNDED_CURVE()
B_SPLINE_CURVE(2,(#1838,#1839,#1840,#1841),.UNSPECIFIED.,.F.,.F.)
B_SPLINE_CURVE_WITH_KNOTS((3,1,3),(4.92074793046938,4.93391112066683,4.93606308759466),
 .UNSPECIFIED.)
CURVE()
GEOMETRIC_REPRESENTATION_ITEM()
RATIONAL_B_SPLINE_CURVE((2.78947368421053,2.74897128480129,2.70158038861301,
2.6949152542373))
REPRESENTATION_ITEM('')
);
#25=(
BOUNDED_CURVE()
B_SPLINE_CURVE(2,(#1856,#1857,#1858),.UNSPECIFIED.,.F.,.F.)
B_SPLINE_CURVE_WITH_KNOTS((3,3),(0.259247297743259,0.27456245486854),
 .UNSPECIFIED.)
CURVE()
GEOMETRIC_REPRESENTATION_ITEM()
RATIONAL_B_SPLINE_CURVE((2.69491525423729,2.74234980302375,2.78947368421052))
REPRESENTATION_ITEM('')
);
#26=(
BOUNDED_CURVE()
B_SPLINE_CURVE(2,(#1895,#1896,#1897,#1898),.UNSPECIFIED.,.F.,.F.)
B_SPLINE_CURVE_WITH_KNOTS((3,1,3),(4.92074793046938,4.93391112066682,4.93606308759466),
 .UNSPECIFIED.)
CURVE()
GEOMETRIC_REPRESENTATION_ITEM()
RATIONAL_B_SPLINE_CURVE((2.78947368421052,2.74897128480128,2.701580388613,
2.69491525423729))
REPRESENTATION_ITEM('')
);
#27=FACE_BOUND('',#381,.T.);
#28=FACE_BOUND('',#385,.T.);
#29=FACE_BOUND('',#404,.T.);
#30=FACE_BOUND('',#413,.T.);
#31=FACE_BOUND('',#415,.T.);
#32=FACE_BOUND('',#417,.T.);
#33=PLANE('',#1227);
#34=PLANE('',#1229);
#35=PLANE('',#1231);
#36=PLANE('',#1233);
#37=PLANE('',#1234);
#38=PLANE('',#1237);
#39=PLANE('',#1238);
#40=PLANE('',#1240);
#41=PLANE('',#1245);
#42=PLANE('',#1250);
#43=PLANE('',#1254);
#44=PLANE('',#1258);
#45=PLANE('',#1259);
#46=PLANE('',#1260);
#47=PLANE('',#1261);
#48=PLANE('',#1262);
#49=PLANE('',#1263);
#50=PLANE('',#1264);
#51=PLANE('',#1268);
#52=PLANE('',#1269);
#53=PLANE('',#1270);
#54=PLANE('',#1271);
#55=PLANE('',#1272);
#56=PLANE('',#1273);
#57=PLANE('',#1274);
#58=PLANE('',#1275);
#59=PLANE('',#1276);
#60=PLANE('',#1277);
#61=TOROIDAL_SURFACE('',#1172,2.5,0.5);
#62=TOROIDAL_SURFACE('',#1178,1.5,0.5);
#63=TOROIDAL_SURFACE('',#1184,1.5,0.5);
#64=TOROIDAL_SURFACE('',#1190,2.5,0.5);
#65=TOROIDAL_SURFACE('',#1201,2.5,0.5);
#66=TOROIDAL_SURFACE('',#1207,1.5,0.5);
#67=TOROIDAL_SURFACE('',#1213,1.5,0.5);
#68=TOROIDAL_SURFACE('',#1219,2.5,0.5);
#69=LINE('',#1651,#161);
#70=LINE('',#1652,#162);
#71=LINE('',#1657,#163);
#72=LINE('',#1658,#164);
#73=LINE('',#1667,#165);
#74=LINE('',#1668,#166);
#75=LINE('',#1673,#167);
#76=LINE('',#1674,#168);
#77=LINE('',#1685,#169);
#78=LINE('',#1686,#170);
#79=LINE('',#1697,#171);
#80=LINE('',#1698,#172);
#81=LINE('',#1709,#173);
#82=LINE('',#1710,#174);
#83=LINE('',#1718,#175);
#84=LINE('',#1719,#176);
#85=LINE('',#1724,#177);
#86=LINE('',#1725,#178);
#87=LINE('',#1730,#179);
#88=LINE('',#1731,#180);
#89=LINE('',#1736,#181);
#90=LINE('',#1737,#182);
#91=LINE('',#1748,#183);
#92=LINE('',#1749,#184);
#93=LINE('',#1760,#185);
#94=LINE('',#1761,#186);
#95=LINE('',#1772,#187);
#96=LINE('',#1773,#188);
#97=LINE('',#1781,#189);
#98=LINE('',#1782,#190);
#99=LINE('',#1787,#191);
#100=LINE('',#1788,#192);
#101=LINE('',#1790,#193);
#102=LINE('',#1791,#194);
#103=LINE('',#1793,#195);
#104=LINE('',#1795,#196);
#105=LINE('',#1797,#197);
#106=LINE('',#1799,#198);
#107=LINE('',#1801,#199);
#108=LINE('',#1803,#200);
#109=LINE('',#1807,#201);
#110=LINE('',#1809,#202);
#111=LINE('',#1811,#203);
#112=LINE('',#1813,#204);
#113=LINE('',#1815,#205);
#114=LINE('',#1816,#206);
#115=LINE('',#1819,#207);
#116=LINE('',#1823,#208);
#117=LINE('',#1826,#209);
#118=LINE('',#1828,#210);
#119=LINE('',#1831,#211);
#120=LINE('',#1837,#212);
#121=LINE('',#1846,#213);
#122=LINE('',#1850,#214);
#123=LINE('',#1865,#215);
#124=LINE('',#1874,#216);
#125=LINE('',#1877,#217);
#126=LINE('',#1880,#218);
#127=LINE('',#1881,#219);
#128=LINE('',#1901,#220);
#129=LINE('',#1906,#221);
#130=LINE('',#1908,#222);
#131=LINE('',#1910,#223);
#132=LINE('',#1911,#224);
#133=LINE('',#1914,#225);
#134=LINE('',#1916,#226);
#135=LINE('',#1917,#227);
#136=LINE('',#1920,#228);
#137=LINE('',#1922,#229);
#138=LINE('',#1923,#230);
#139=LINE('',#1926,#231);
#140=LINE('',#1928,#232);
#141=LINE('',#1929,#233);
#142=LINE('',#1932,#234);
#143=LINE('',#1934,#235);
#144=LINE('',#1935,#236);
#145=LINE('',#1937,#237);
#146=LINE('',#1938,#238);
#147=LINE('',#1944,#239);
#148=LINE('',#1948,#240);
#149=LINE('',#1950,#241);
#150=LINE('',#1951,#242);
#151=LINE('',#1954,#243);
#152=LINE('',#1955,#244);
#153=LINE('',#1958,#245);
#154=LINE('',#1959,#246);
#155=LINE('',#1962,#247);
#156=LINE('',#1963,#248);
#157=LINE('',#1966,#249);
#158=LINE('',#1967,#250);
#159=LINE('',#1969,#251);
#160=LINE('',#1973,#252);
#161=VECTOR('',#1306,10.);
#162=VECTOR('',#1307,10.);
#163=VECTOR('',#1312,10.);
#164=VECTOR('',#1313,10.);
#165=VECTOR('',#1324,10.);
#166=VECTOR('',#1325,10.);
#167=VECTOR('',#1330,10.);
#168=VECTOR('',#1331,10.);
#169=VECTOR('',#1344,10.);
#170=VECTOR('',#1345,10.);
#171=VECTOR('',#1358,10.);
#172=VECTOR('',#1359,10.);
#173=VECTOR('',#1372,10.);
#174=VECTOR('',#1373,10.);
#175=VECTOR('',#1384,10.);
#176=VECTOR('',#1385,10.);
#177=VECTOR('',#1390,10.);
#178=VECTOR('',#1391,10.);
#179=VECTOR('',#1396,10.);
#180=VECTOR('',#1397,10.);
#181=VECTOR('',#1402,10.);
#182=VECTOR('',#1403,10.);
#183=VECTOR('',#1416,10.);
#184=VECTOR('',#1417,10.);
#185=VECTOR('',#1430,10.);
#186=VECTOR('',#1431,10.);
#187=VECTOR('',#1444,10.);
#188=VECTOR('',#1445,10.);
#189=VECTOR('',#1456,10.);
#190=VECTOR('',#1457,10.);
#191=VECTOR('',#1462,10.);
#192=VECTOR('',#1463,10.);
#193=VECTOR('',#1466,10.);
#194=VECTOR('',#1467,10.);
#195=VECTOR('',#1470,10.);
#196=VECTOR('',#1473,10.);
#197=VECTOR('',#1476,10.);
#198=VECTOR('',#1479,10.);
#199=VECTOR('',#1482,10.);
#200=VECTOR('',#1485,10.);
#201=VECTOR('',#1488,10.);
#202=VECTOR('',#1489,10.);
#203=VECTOR('',#1490,10.);
#204=VECTOR('',#1491,10.);
#205=VECTOR('',#1492,10.);
#206=VECTOR('',#1493,10.);
#207=VECTOR('',#1496,10.);
#208=VECTOR('',#1499,10.);
#209=VECTOR('',#1502,10.);
#210=VECTOR('',#1505,10.);
#211=VECTOR('',#1508,10.);
#212=VECTOR('',#1509,10.);
#213=VECTOR('',#1514,10.);
#214=VECTOR('',#1517,10.);
#215=VECTOR('',#1526,10.);
#216=VECTOR('',#1533,10.);
#217=VECTOR('',#1536,10.);
#218=VECTOR('',#1539,10.);
#219=VECTOR('',#1540,10.);
#220=VECTOR('',#1553,1.6);
#221=VECTOR('',#1558,10.);
#222=VECTOR('',#1559,10.);
#223=VECTOR('',#1560,10.);
#224=VECTOR('',#1561,10.);
#225=VECTOR('',#1564,10.);
#226=VECTOR('',#1565,10.);
#227=VECTOR('',#1566,10.);
#228=VECTOR('',#1569,10.);
#229=VECTOR('',#1570,10.);
#230=VECTOR('',#1571,10.);
#231=VECTOR('',#1574,10.);
#232=VECTOR('',#1575,10.);
#233=VECTOR('',#1576,10.);
#234=VECTOR('',#1579,10.);
#235=VECTOR('',#1580,10.);
#236=VECTOR('',#1581,10.);
#237=VECTOR('',#1584,10.);
#238=VECTOR('',#1585,10.);
#239=VECTOR('',#1592,1.6);
#240=VECTOR('',#1597,10.);
#241=VECTOR('',#1598,10.);
#242=VECTOR('',#1599,10.);
#243=VECTOR('',#1602,10.);
#244=VECTOR('',#1603,10.);
#245=VECTOR('',#1606,10.);
#246=VECTOR('',#1607,10.);
#247=VECTOR('',#1610,10.);
#248=VECTOR('',#1611,10.);
#249=VECTOR('',#1614,10.);
#250=VECTOR('',#1615,10.);
#251=VECTOR('',#1618,10.);
#252=VECTOR('',#1625,10.);
#253=CYLINDRICAL_SURFACE('',#1162,0.5);
#254=CYLINDRICAL_SURFACE('',#1163,0.5);
#255=CYLINDRICAL_SURFACE('',#1169,0.5);
#256=CYLINDRICAL_SURFACE('',#1170,0.5);
#257=CYLINDRICAL_SURFACE('',#1176,0.5);
#258=CYLINDRICAL_SURFACE('',#1182,0.5);
#259=CYLINDRICAL_SURFACE('',#1188,0.5);
#260=CYLINDRICAL_SURFACE('',#1194,0.5);
#261=CYLINDRICAL_SURFACE('',#1195,0.5);
#262=CYLINDRICAL_SURFACE('',#1197,0.5);
#263=CYLINDRICAL_SURFACE('',#1199,0.5);
#264=CYLINDRICAL_SURFACE('',#1205,0.5);
#265=CYLINDRICAL_SURFACE('',#1211,0.5);
#266=CYLINDRICAL_SURFACE('',#1217,0.5);
#267=CYLINDRICAL_SURFACE('',#1223,0.5);
#268=CYLINDRICAL_SURFACE('',#1224,0.5);
#269=CYLINDRICAL_SURFACE('',#1226,2.);
#270=CYLINDRICAL_SURFACE('',#1228,2.);
#271=CYLINDRICAL_SURFACE('',#1230,2.);
#272=CYLINDRICAL_SURFACE('',#1232,2.);
#273=CYLINDRICAL_SURFACE('',#1248,6.125);
#274=CYLINDRICAL_SURFACE('',#1251,6.125);
#275=CYLINDRICAL_SURFACE('',#1256,1.6);
#276=CYLINDRICAL_SURFACE('',#1265,1.6);
#277=FACE_OUTER_BOUND('',#345,.T.);
#278=FACE_OUTER_BOUND('',#346,.T.);
#279=FACE_OUTER_BOUND('',#347,.T.);
#280=FACE_OUTER_BOUND('',#348,.T.);
#281=FACE_OUTER_BOUND('',#349,.T.);
#282=FACE_OUTER_BOUND('',#350,.T.);
#283=FACE_OUTER_BOUND('',#351,.T.);
#284=FACE_OUTER_BOUND('',#352,.T.);
#285=FACE_OUTER_BOUND('',#353,.T.);
#286=FACE_OUTER_BOUND('',#354,.T.);
#287=FACE_OUTER_BOUND('',#355,.T.);
#288=FACE_OUTER_BOUND('',#356,.T.);
#289=FACE_OUTER_BOUND('',#357,.T.);
#290=FACE_OUTER_BOUND('',#358,.T.);
#291=FACE_OUTER_BOUND('',#359,.T.);
#292=FACE_OUTER_BOUND('',#360,.T.);
#293=FACE_OUTER_BOUND('',#361,.T.);
#294=FACE_OUTER_BOUND('',#362,.T.);
#295=FACE_OUTER_BOUND('',#363,.T.);
#296=FACE_OUTER_BOUND('',#364,.T.);
#297=FACE_OUTER_BOUND('',#365,.T.);
#298=FACE_OUTER_BOUND('',#366,.T.);
#299=FACE_OUTER_BOUND('',#367,.T.);
#300=FACE_OUTER_BOUND('',#368,.T.);
#301=FACE_OUTER_BOUND('',#369,.T.);
#302=FACE_OUTER_BOUND('',#370,.T.);
#303=FACE_OUTER_BOUND('',#371,.T.);
#304=FACE_OUTER_BOUND('',#372,.T.);
#305=FACE_OUTER_BOUND('',#373,.T.);
#306=FACE_OUTER_BOUND('',#374,.T.);
#307=FACE_OUTER_BOUND('',#375,.T.);
#308=FACE_OUTER_BOUND('',#376,.T.);
#309=FACE_OUTER_BOUND('',#377,.T.);
#310=FACE_OUTER_BOUND('',#378,.T.);
#311=FACE_OUTER_BOUND('',#379,.T.);
#312=FACE_OUTER_BOUND('',#380,.T.);
#313=FACE_OUTER_BOUND('',#382,.T.);
#314=FACE_OUTER_BOUND('',#383,.T.);
#315=FACE_OUTER_BOUND('',#384,.T.);
#316=FACE_OUTER_BOUND('',#386,.T.);
#317=FACE_OUTER_BOUND('',#387,.T.);
#318=FACE_OUTER_BOUND('',#388,.T.);
#319=FACE_OUTER_BOUND('',#389,.T.);
#320=FACE_OUTER_BOUND('',#390,.T.);
#321=FACE_OUTER_BOUND('',#391,.T.);
#322=FACE_OUTER_BOUND('',#392,.T.);
#323=FACE_OUTER_BOUND('',#393,.T.);
#324=FACE_OUTER_BOUND('',#394,.T.);
#325=FACE_OUTER_BOUND('',#395,.T.);
#326=FACE_OUTER_BOUND('',#396,.T.);
#327=FACE_OUTER_BOUND('',#397,.T.);
#328=FACE_OUTER_BOUND('',#398,.T.);
#329=FACE_OUTER_BOUND('',#399,.T.);
#330=FACE_OUTER_BOUND('',#400,.T.);
#331=FACE_OUTER_BOUND('',#401,.T.);
#332=FACE_OUTER_BOUND('',#402,.T.);
#333=FACE_OUTER_BOUND('',#403,.T.);
#334=FACE_OUTER_BOUND('',#405,.T.);
#335=FACE_OUTER_BOUND('',#406,.T.);
#336=FACE_OUTER_BOUND('',#407,.T.);
#337=FACE_OUTER_BOUND('',#408,.T.);
#338=FACE_OUTER_BOUND('',#409,.T.);
#339=FACE_OUTER_BOUND('',#410,.T.);
#340=FACE_OUTER_BOUND('',#411,.T.);
#341=FACE_OUTER_BOUND('',#412,.T.);
#342=FACE_OUTER_BOUND('',#414,.T.);
#343=FACE_OUTER_BOUND('',#416,.T.);
#344=FACE_OUTER_BOUND('',#418,.T.);
#345=EDGE_LOOP('',(#735,#736,#737));
#346=EDGE_LOOP('',(#738,#739,#740));
#347=EDGE_LOOP('',(#741,#742,#743));
#348=EDGE_LOOP('',(#744,#745,#746,#747));
#349=EDGE_LOOP('',(#748,#749,#750,#751));
#350=EDGE_LOOP('',(#752,#753,#754));
#351=EDGE_LOOP('',(#755,#756,#757,#758));
#352=EDGE_LOOP('',(#759,#760,#761,#762));
#353=EDGE_LOOP('',(#763,#764,#765,#766));
#354=EDGE_LOOP('',(#767,#768,#769,#770));
#355=EDGE_LOOP('',(#771,#772,#773,#774));
#356=EDGE_LOOP('',(#775,#776,#777,#778));
#357=EDGE_LOOP('',(#779,#780,#781,#782));
#358=EDGE_LOOP('',(#783,#784,#785,#786));
#359=EDGE_LOOP('',(#787,#788,#789,#790));
#360=EDGE_LOOP('',(#791,#792,#793,#794));
#361=EDGE_LOOP('',(#795,#796,#797,#798));
#362=EDGE_LOOP('',(#799,#800,#801,#802));
#363=EDGE_LOOP('',(#803,#804,#805,#806));
#364=EDGE_LOOP('',(#807,#808,#809,#810));
#365=EDGE_LOOP('',(#811,#812,#813,#814));
#366=EDGE_LOOP('',(#815,#816,#817,#818));
#367=EDGE_LOOP('',(#819,#820,#821,#822));
#368=EDGE_LOOP('',(#823,#824,#825,#826));
#369=EDGE_LOOP('',(#827,#828,#829,#830));
#370=EDGE_LOOP('',(#831,#832,#833,#834));
#371=EDGE_LOOP('',(#835,#836,#837,#838));
#372=EDGE_LOOP('',(#839,#840,#841,#842));
#373=EDGE_LOOP('',(#843,#844,#845,#846));
#374=EDGE_LOOP('',(#847,#848,#849,#850));
#375=EDGE_LOOP('',(#851,#852,#853,#854));
#376=EDGE_LOOP('',(#855,#856,#857,#858));
#377=EDGE_LOOP('',(#859,#860,#861,#862));
#378=EDGE_LOOP('',(#863,#864,#865,#866));
#379=EDGE_LOOP('',(#867,#868,#869,#870));
#380=EDGE_LOOP('',(#871,#872,#873,#874));
#381=EDGE_LOOP('',(#875,#876,#877,#878,#879,#880));
#382=EDGE_LOOP('',(#881,#882,#883,#884,#885,#886,#887,#888,#889,#890,#891,
#892,#893,#894,#895,#896));
#383=EDGE_LOOP('',(#897,#898,#899,#900));
#384=EDGE_LOOP('',(#901,#902,#903,#904,#905,#906,#907,#908));
#385=EDGE_LOOP('',(#909));
#386=EDGE_LOOP('',(#910,#911,#912,#913,#914,#915,#916,#917,#918,#919,#920,
#921,#922,#923,#924,#925));
#387=EDGE_LOOP('',(#926,#927,#928,#929));
#388=EDGE_LOOP('',(#930,#931,#932,#933));
#389=EDGE_LOOP('',(#934,#935,#936,#937));
#390=EDGE_LOOP('',(#938,#939,#940,#941));
#391=EDGE_LOOP('',(#942,#943,#944,#945));
#392=EDGE_LOOP('',(#946,#947,#948,#949));
#393=EDGE_LOOP('',(#950,#951,#952,#953));
#394=EDGE_LOOP('',(#954,#955,#956,#957));
#395=EDGE_LOOP('',(#958,#959,#960,#961));
#396=EDGE_LOOP('',(#962,#963,#964,#965));
#397=EDGE_LOOP('',(#966,#967,#968,#969));
#398=EDGE_LOOP('',(#970,#971,#972,#973));
#399=EDGE_LOOP('',(#974,#975,#976,#977));
#400=EDGE_LOOP('',(#978,#979,#980,#981));
#401=EDGE_LOOP('',(#982,#983,#984,#985));
#402=EDGE_LOOP('',(#986,#987,#988,#989));
#403=EDGE_LOOP('',(#990,#991,#992,#993,#994,#995));
#404=EDGE_LOOP('',(#996));
#405=EDGE_LOOP('',(#997,#998,#999,#1000));
#406=EDGE_LOOP('',(#1001,#1002,#1003,#1004));
#407=EDGE_LOOP('',(#1005,#1006,#1007,#1008));
#408=EDGE_LOOP('',(#1009,#1010,#1011,#1012));
#409=EDGE_LOOP('',(#1013,#1014,#1015,#1016));
#410=EDGE_LOOP('',(#1017,#1018,#1019,#1020));
#411=EDGE_LOOP('',(#1021,#1022,#1023,#1024));
#412=EDGE_LOOP('',(#1025,#1026,#1027,#1028,#1029,#1030));
#413=EDGE_LOOP('',(#1031));
#414=EDGE_LOOP('',(#1032,#1033,#1034,#1035));
#415=EDGE_LOOP('',(#1036,#1037,#1038,#1039,#1040,#1041));
#416=EDGE_LOOP('',(#1042,#1043,#1044,#1045,#1046,#1047,#1048,#1049));
#417=EDGE_LOOP('',(#1050));
#418=EDGE_LOOP('',(#1051,#1052,#1053,#1054));
#419=CIRCLE('',#1151,0.5);
#420=CIRCLE('',#1152,0.5);
#421=CIRCLE('',#1153,0.5);
#422=CIRCLE('',#1155,0.5);
#423=CIRCLE('',#1156,0.5);
#424=CIRCLE('',#1157,0.5);
#425=CIRCLE('',#1159,0.5);
#426=CIRCLE('',#1160,0.499999999999998);
#427=CIRCLE('',#1161,0.5);
#428=CIRCLE('',#1164,0.5);
#429=CIRCLE('',#1166,0.5);
#430=CIRCLE('',#1167,0.5);
#431=CIRCLE('',#1168,0.5);
#432=CIRCLE('',#1171,0.5);
#433=CIRCLE('',#1173,0.499999999999999);
#434=CIRCLE('',#1174,2.5);
#435=CIRCLE('',#1175,2.);
#436=CIRCLE('',#1177,0.5);
#437=CIRCLE('',#1179,0.5);
#438=CIRCLE('',#1180,1.5);
#439=CIRCLE('',#1181,2.);
#440=CIRCLE('',#1183,0.5);
#441=CIRCLE('',#1185,0.5);
#442=CIRCLE('',#1186,1.5);
#443=CIRCLE('',#1187,2.);
#444=CIRCLE('',#1189,0.500000000000001);
#445=CIRCLE('',#1191,0.5);
#446=CIRCLE('',#1192,2.5);
#447=CIRCLE('',#1193,2.);
#448=CIRCLE('',#1196,0.5);
#449=CIRCLE('',#1198,0.5);
#450=CIRCLE('',#1200,0.5);
#451=CIRCLE('',#1202,0.5);
#452=CIRCLE('',#1203,2.5);
#453=CIRCLE('',#1204,2.);
#454=CIRCLE('',#1206,0.500000000000001);
#455=CIRCLE('',#1208,0.5);
#456=CIRCLE('',#1209,1.5);
#457=CIRCLE('',#1210,2.);
#458=CIRCLE('',#1212,0.5);
#459=CIRCLE('',#1214,0.5);
#460=CIRCLE('',#1215,1.5);
#461=CIRCLE('',#1216,2.);
#462=CIRCLE('',#1218,0.5);
#463=CIRCLE('',#1220,0.499999999999999);
#464=CIRCLE('',#1221,2.5);
#465=CIRCLE('',#1222,2.);
#466=CIRCLE('',#1225,0.5);
#467=CIRCLE('',#1235,6.375);
#468=CIRCLE('',#1236,6.375);
#469=CIRCLE('',#1239,1.6);
#470=CIRCLE('',#1241,6.375);
#471=CIRCLE('',#1242,6.375);
#472=CIRCLE('',#1244,6.125);
#473=CIRCLE('',#1247,6.125);
#474=CIRCLE('',#1249,6.125);
#475=CIRCLE('',#1252,6.125);
#476=CIRCLE('',#1257,1.6);
#477=CIRCLE('',#1266,1.6);
#478=CIRCLE('',#1267,1.6);
#479=VERTEX_POINT('',#1630);
#480=VERTEX_POINT('',#1631);
#481=VERTEX_POINT('',#1633);
#482=VERTEX_POINT('',#1637);
#483=VERTEX_POINT('',#1638);
#484=VERTEX_POINT('',#1640);
#485=VERTEX_POINT('',#1644);
#486=VERTEX_POINT('',#1645);
#487=VERTEX_POINT('',#1647);
#488=VERTEX_POINT('',#1654);
#489=VERTEX_POINT('',#1655);
#490=VERTEX_POINT('',#1660);
#491=VERTEX_POINT('',#1661);
#492=VERTEX_POINT('',#1663);
#493=VERTEX_POINT('',#1670);
#494=VERTEX_POINT('',#1671);
#495=VERTEX_POINT('',#1676);
#496=VERTEX_POINT('',#1677);
#497=VERTEX_POINT('',#1682);
#498=VERTEX_POINT('',#1683);
#499=VERTEX_POINT('',#1688);
#500=VERTEX_POINT('',#1689);
#501=VERTEX_POINT('',#1694);
#502=VERTEX_POINT('',#1695);
#503=VERTEX_POINT('',#1700);
#504=VERTEX_POINT('',#1701);
#505=VERTEX_POINT('',#1706);
#506=VERTEX_POINT('',#1707);
#507=VERTEX_POINT('',#1712);
#508=VERTEX_POINT('',#1713);
#509=VERTEX_POINT('',#1721);
#510=VERTEX_POINT('',#1722);
#511=VERTEX_POINT('',#1727);
#512=VERTEX_POINT('',#1728);
#513=VERTEX_POINT('',#1733);
#514=VERTEX_POINT('',#1734);
#515=VERTEX_POINT('',#1739);
#516=VERTEX_POINT('',#1740);
#517=VERTEX_POINT('',#1745);
#518=VERTEX_POINT('',#1746);
#519=VERTEX_POINT('',#1751);
#520=VERTEX_POINT('',#1752);
#521=VERTEX_POINT('',#1757);
#522=VERTEX_POINT('',#1758);
#523=VERTEX_POINT('',#1763);
#524=VERTEX_POINT('',#1764);
#525=VERTEX_POINT('',#1769);
#526=VERTEX_POINT('',#1770);
#527=VERTEX_POINT('',#1775);
#528=VERTEX_POINT('',#1776);
#529=VERTEX_POINT('',#1784);
#530=VERTEX_POINT('',#1785);
#531=VERTEX_POINT('',#1805);
#532=VERTEX_POINT('',#1806);
#533=VERTEX_POINT('',#1808);
#534=VERTEX_POINT('',#1810);
#535=VERTEX_POINT('',#1812);
#536=VERTEX_POINT('',#1814);
#537=VERTEX_POINT('',#1818);
#538=VERTEX_POINT('',#1820);
#539=VERTEX_POINT('',#1822);
#540=VERTEX_POINT('',#1824);
#541=VERTEX_POINT('',#1830);
#542=VERTEX_POINT('',#1832);
#543=VERTEX_POINT('',#1836);
#544=VERTEX_POINT('',#1842);
#545=VERTEX_POINT('',#1845);
#546=VERTEX_POINT('',#1847);
#547=VERTEX_POINT('',#1849);
#548=VERTEX_POINT('',#1853);
#549=VERTEX_POINT('',#1854);
#550=VERTEX_POINT('',#1864);
#551=VERTEX_POINT('',#1873);
#552=VERTEX_POINT('',#1875);
#553=VERTEX_POINT('',#1879);
#554=VERTEX_POINT('',#1900);
#555=VERTEX_POINT('',#1904);
#556=VERTEX_POINT('',#1905);
#557=VERTEX_POINT('',#1907);
#558=VERTEX_POINT('',#1909);
#559=VERTEX_POINT('',#1913);
#560=VERTEX_POINT('',#1915);
#561=VERTEX_POINT('',#1919);
#562=VERTEX_POINT('',#1921);
#563=VERTEX_POINT('',#1925);
#564=VERTEX_POINT('',#1927);
#565=VERTEX_POINT('',#1931);
#566=VERTEX_POINT('',#1933);
#567=VERTEX_POINT('',#1941);
#568=VERTEX_POINT('',#1943);
#569=VERTEX_POINT('',#1947);
#570=VERTEX_POINT('',#1949);
#571=VERTEX_POINT('',#1953);
#572=VERTEX_POINT('',#1957);
#573=VERTEX_POINT('',#1961);
#574=VERTEX_POINT('',#1965);
#575=EDGE_CURVE('',#479,#480,#419,.F.);
#576=EDGE_CURVE('',#481,#479,#420,.F.);
#577=EDGE_CURVE('',#480,#481,#421,.F.);
#578=EDGE_CURVE('',#482,#483,#422,.F.);
#579=EDGE_CURVE('',#484,#482,#423,.F.);
#580=EDGE_CURVE('',#483,#484,#424,.F.);
#581=EDGE_CURVE('',#485,#486,#425,.F.);
#582=EDGE_CURVE('',#487,#485,#426,.F.);
#583=EDGE_CURVE('',#486,#487,#427,.F.);
#584=EDGE_CURVE('',#479,#487,#69,.T.);
#585=EDGE_CURVE('',#485,#481,#70,.T.);
#586=EDGE_CURVE('',#488,#489,#428,.T.);
#587=EDGE_CURVE('',#489,#486,#71,.T.);
#588=EDGE_CURVE('',#487,#488,#72,.T.);
#589=EDGE_CURVE('',#490,#491,#429,.F.);
#590=EDGE_CURVE('',#492,#490,#430,.F.);
#591=EDGE_CURVE('',#491,#492,#431,.F.);
#592=EDGE_CURVE('',#482,#492,#73,.T.);
#593=EDGE_CURVE('',#490,#484,#74,.T.);
#594=EDGE_CURVE('',#493,#494,#432,.T.);
#595=EDGE_CURVE('',#494,#491,#75,.T.);
#596=EDGE_CURVE('',#492,#493,#76,.T.);
#597=EDGE_CURVE('',#495,#496,#433,.T.);
#598=EDGE_CURVE('',#496,#494,#434,.T.);
#599=EDGE_CURVE('',#493,#495,#435,.T.);
#600=EDGE_CURVE('',#497,#498,#436,.T.);
#601=EDGE_CURVE('',#498,#496,#77,.T.);
#602=EDGE_CURVE('',#495,#497,#78,.T.);
#603=EDGE_CURVE('',#499,#500,#437,.T.);
#604=EDGE_CURVE('',#500,#498,#438,.T.);
#605=EDGE_CURVE('',#497,#499,#439,.T.);
#606=EDGE_CURVE('',#501,#502,#440,.T.);
#607=EDGE_CURVE('',#502,#500,#79,.T.);
#608=EDGE_CURVE('',#499,#501,#80,.T.);
#609=EDGE_CURVE('',#503,#504,#441,.T.);
#610=EDGE_CURVE('',#504,#502,#442,.T.);
#611=EDGE_CURVE('',#501,#503,#443,.T.);
#612=EDGE_CURVE('',#505,#506,#444,.T.);
#613=EDGE_CURVE('',#506,#504,#81,.T.);
#614=EDGE_CURVE('',#503,#505,#82,.T.);
#615=EDGE_CURVE('',#507,#508,#445,.T.);
#616=EDGE_CURVE('',#508,#506,#446,.T.);
#617=EDGE_CURVE('',#505,#507,#447,.T.);
#618=EDGE_CURVE('',#486,#508,#83,.T.);
#619=EDGE_CURVE('',#507,#485,#84,.T.);
#620=EDGE_CURVE('',#509,#510,#448,.T.);
#621=EDGE_CURVE('',#510,#490,#85,.T.);
#622=EDGE_CURVE('',#491,#509,#86,.T.);
#623=EDGE_CURVE('',#511,#512,#449,.T.);
#624=EDGE_CURVE('',#512,#483,#87,.T.);
#625=EDGE_CURVE('',#484,#511,#88,.T.);
#626=EDGE_CURVE('',#513,#514,#450,.T.);
#627=EDGE_CURVE('',#514,#480,#89,.T.);
#628=EDGE_CURVE('',#481,#513,#90,.T.);
#629=EDGE_CURVE('',#515,#516,#451,.T.);
#630=EDGE_CURVE('',#516,#514,#452,.T.);
#631=EDGE_CURVE('',#513,#515,#453,.T.);
#632=EDGE_CURVE('',#517,#518,#454,.T.);
#633=EDGE_CURVE('',#518,#516,#91,.T.);
#634=EDGE_CURVE('',#515,#517,#92,.T.);
#635=EDGE_CURVE('',#519,#520,#455,.T.);
#636=EDGE_CURVE('',#520,#518,#456,.T.);
#637=EDGE_CURVE('',#517,#519,#457,.T.);
#638=EDGE_CURVE('',#521,#522,#458,.T.);
#639=EDGE_CURVE('',#522,#520,#93,.T.);
#640=EDGE_CURVE('',#519,#521,#94,.T.);
#641=EDGE_CURVE('',#523,#524,#459,.T.);
#642=EDGE_CURVE('',#524,#522,#460,.T.);
#643=EDGE_CURVE('',#521,#523,#461,.T.);
#644=EDGE_CURVE('',#525,#526,#462,.T.);
#645=EDGE_CURVE('',#526,#524,#95,.T.);
#646=EDGE_CURVE('',#523,#525,#96,.T.);
#647=EDGE_CURVE('',#527,#528,#463,.T.);
#648=EDGE_CURVE('',#528,#526,#464,.T.);
#649=EDGE_CURVE('',#525,#527,#465,.T.);
#650=EDGE_CURVE('',#483,#528,#97,.T.);
#651=EDGE_CURVE('',#527,#482,#98,.T.);
#652=EDGE_CURVE('',#529,#530,#466,.T.);
#653=EDGE_CURVE('',#530,#479,#99,.T.);
#654=EDGE_CURVE('',#480,#529,#100,.T.);
#655=EDGE_CURVE('',#505,#515,#101,.T.);
#656=EDGE_CURVE('',#513,#507,#102,.T.);
#657=EDGE_CURVE('',#517,#503,#103,.T.);
#658=EDGE_CURVE('',#501,#519,#104,.T.);
#659=EDGE_CURVE('',#521,#499,#105,.T.);
#660=EDGE_CURVE('',#497,#523,#106,.T.);
#661=EDGE_CURVE('',#525,#495,#107,.T.);
#662=EDGE_CURVE('',#493,#527,#108,.T.);
#663=EDGE_CURVE('',#531,#532,#109,.T.);
#664=EDGE_CURVE('',#532,#533,#110,.T.);
#665=EDGE_CURVE('',#533,#534,#111,.T.);
#666=EDGE_CURVE('',#534,#535,#112,.T.);
#667=EDGE_CURVE('',#535,#536,#113,.T.);
#668=EDGE_CURVE('',#536,#531,#114,.T.);
#669=EDGE_CURVE('',#489,#537,#115,.T.);
#670=EDGE_CURVE('',#538,#537,#467,.T.);
#671=EDGE_CURVE('',#539,#538,#116,.T.);
#672=EDGE_CURVE('',#540,#539,#468,.T.);
#673=EDGE_CURVE('',#540,#509,#117,.T.);
#674=EDGE_CURVE('',#488,#530,#118,.T.);
#675=EDGE_CURVE('',#541,#529,#119,.T.);
#676=EDGE_CURVE('',#542,#541,#23,.F.);
#677=EDGE_CURVE('',#543,#542,#120,.F.);
#678=EDGE_CURVE('',#537,#543,#24,.F.);
#679=EDGE_CURVE('',#544,#544,#469,.T.);
#680=EDGE_CURVE('',#512,#545,#121,.T.);
#681=EDGE_CURVE('',#546,#545,#470,.T.);
#682=EDGE_CURVE('',#547,#546,#122,.T.);
#683=EDGE_CURVE('',#541,#547,#471,.T.);
#684=EDGE_CURVE('',#548,#549,#472,.T.);
#685=EDGE_CURVE('',#549,#540,#25,.F.);
#686=EDGE_CURVE('',#539,#548,#15,.T.);
#687=EDGE_CURVE('',#550,#548,#123,.T.);
#688=EDGE_CURVE('',#538,#550,#16,.T.);
#689=EDGE_CURVE('',#543,#550,#473,.T.);
#690=EDGE_CURVE('',#548,#551,#124,.T.);
#691=EDGE_CURVE('',#552,#551,#474,.T.);
#692=EDGE_CURVE('',#549,#552,#125,.T.);
#693=EDGE_CURVE('',#550,#553,#126,.T.);
#694=EDGE_CURVE('',#551,#553,#127,.T.);
#695=EDGE_CURVE('',#553,#542,#475,.T.);
#696=EDGE_CURVE('',#547,#553,#17,.T.);
#697=EDGE_CURVE('',#546,#551,#18,.T.);
#698=EDGE_CURVE('',#545,#552,#26,.F.);
#699=EDGE_CURVE('',#544,#554,#128,.T.);
#700=EDGE_CURVE('',#554,#554,#476,.T.);
#701=EDGE_CURVE('',#555,#556,#129,.T.);
#702=EDGE_CURVE('',#555,#557,#130,.T.);
#703=EDGE_CURVE('',#558,#557,#131,.T.);
#704=EDGE_CURVE('',#556,#558,#132,.T.);
#705=EDGE_CURVE('',#556,#559,#133,.T.);
#706=EDGE_CURVE('',#560,#558,#134,.T.);
#707=EDGE_CURVE('',#559,#560,#135,.T.);
#708=EDGE_CURVE('',#559,#561,#136,.T.);
#709=EDGE_CURVE('',#562,#560,#137,.T.);
#710=EDGE_CURVE('',#561,#562,#138,.T.);
#711=EDGE_CURVE('',#561,#563,#139,.T.);
#712=EDGE_CURVE('',#564,#562,#140,.T.);
#713=EDGE_CURVE('',#563,#564,#141,.T.);
#714=EDGE_CURVE('',#563,#565,#142,.T.);
#715=EDGE_CURVE('',#566,#564,#143,.T.);
#716=EDGE_CURVE('',#565,#566,#144,.T.);
#717=EDGE_CURVE('',#565,#555,#145,.T.);
#718=EDGE_CURVE('',#557,#566,#146,.T.);
#719=EDGE_CURVE('',#567,#567,#477,.T.);
#720=EDGE_CURVE('',#567,#568,#147,.T.);
#721=EDGE_CURVE('',#568,#568,#478,.T.);
#722=EDGE_CURVE('',#531,#569,#148,.T.);
#723=EDGE_CURVE('',#569,#570,#149,.T.);
#724=EDGE_CURVE('',#532,#570,#150,.T.);
#725=EDGE_CURVE('',#536,#571,#151,.T.);
#726=EDGE_CURVE('',#571,#569,#152,.T.);
#727=EDGE_CURVE('',#535,#572,#153,.T.);
#728=EDGE_CURVE('',#572,#571,#154,.T.);
#729=EDGE_CURVE('',#534,#573,#155,.T.);
#730=EDGE_CURVE('',#573,#572,#156,.T.);
#731=EDGE_CURVE('',#533,#574,#157,.T.);
#732=EDGE_CURVE('',#574,#573,#158,.T.);
#733=EDGE_CURVE('',#570,#574,#159,.T.);
#734=EDGE_CURVE('',#510,#511,#160,.T.);
#735=ORIENTED_EDGE('',*,*,#575,.F.);
#736=ORIENTED_EDGE('',*,*,#576,.F.);
#737=ORIENTED_EDGE('',*,*,#577,.F.);
#738=ORIENTED_EDGE('',*,*,#578,.F.);
#739=ORIENTED_EDGE('',*,*,#579,.F.);
#740=ORIENTED_EDGE('',*,*,#580,.F.);
#741=ORIENTED_EDGE('',*,*,#581,.F.);
#742=ORIENTED_EDGE('',*,*,#582,.F.);
#743=ORIENTED_EDGE('',*,*,#583,.F.);
#744=ORIENTED_EDGE('',*,*,#576,.T.);
#745=ORIENTED_EDGE('',*,*,#584,.T.);
#746=ORIENTED_EDGE('',*,*,#582,.T.);
#747=ORIENTED_EDGE('',*,*,#585,.T.);
#748=ORIENTED_EDGE('',*,*,#586,.T.);
#749=ORIENTED_EDGE('',*,*,#587,.T.);
#750=ORIENTED_EDGE('',*,*,#583,.T.);
#751=ORIENTED_EDGE('',*,*,#588,.T.);
#752=ORIENTED_EDGE('',*,*,#589,.F.);
#753=ORIENTED_EDGE('',*,*,#590,.F.);
#754=ORIENTED_EDGE('',*,*,#591,.F.);
#755=ORIENTED_EDGE('',*,*,#579,.T.);
#756=ORIENTED_EDGE('',*,*,#592,.T.);
#757=ORIENTED_EDGE('',*,*,#590,.T.);
#758=ORIENTED_EDGE('',*,*,#593,.T.);
#759=ORIENTED_EDGE('',*,*,#594,.T.);
#760=ORIENTED_EDGE('',*,*,#595,.T.);
#761=ORIENTED_EDGE('',*,*,#591,.T.);
#762=ORIENTED_EDGE('',*,*,#596,.T.);
#763=ORIENTED_EDGE('',*,*,#597,.T.);
#764=ORIENTED_EDGE('',*,*,#598,.T.);
#765=ORIENTED_EDGE('',*,*,#594,.F.);
#766=ORIENTED_EDGE('',*,*,#599,.T.);
#767=ORIENTED_EDGE('',*,*,#600,.T.);
#768=ORIENTED_EDGE('',*,*,#601,.T.);
#769=ORIENTED_EDGE('',*,*,#597,.F.);
#770=ORIENTED_EDGE('',*,*,#602,.T.);
#771=ORIENTED_EDGE('',*,*,#603,.T.);
#772=ORIENTED_EDGE('',*,*,#604,.T.);
#773=ORIENTED_EDGE('',*,*,#600,.F.);
#774=ORIENTED_EDGE('',*,*,#605,.T.);
#775=ORIENTED_EDGE('',*,*,#606,.T.);
#776=ORIENTED_EDGE('',*,*,#607,.T.);
#777=ORIENTED_EDGE('',*,*,#603,.F.);
#778=ORIENTED_EDGE('',*,*,#608,.T.);
#779=ORIENTED_EDGE('',*,*,#609,.T.);
#780=ORIENTED_EDGE('',*,*,#610,.T.);
#781=ORIENTED_EDGE('',*,*,#606,.F.);
#782=ORIENTED_EDGE('',*,*,#611,.T.);
#783=ORIENTED_EDGE('',*,*,#612,.T.);
#784=ORIENTED_EDGE('',*,*,#613,.T.);
#785=ORIENTED_EDGE('',*,*,#609,.F.);
#786=ORIENTED_EDGE('',*,*,#614,.T.);
#787=ORIENTED_EDGE('',*,*,#615,.T.);
#788=ORIENTED_EDGE('',*,*,#616,.T.);
#789=ORIENTED_EDGE('',*,*,#612,.F.);
#790=ORIENTED_EDGE('',*,*,#617,.T.);
#791=ORIENTED_EDGE('',*,*,#581,.T.);
#792=ORIENTED_EDGE('',*,*,#618,.T.);
#793=ORIENTED_EDGE('',*,*,#615,.F.);
#794=ORIENTED_EDGE('',*,*,#619,.T.);
#795=ORIENTED_EDGE('',*,*,#620,.T.);
#796=ORIENTED_EDGE('',*,*,#621,.T.);
#797=ORIENTED_EDGE('',*,*,#589,.T.);
#798=ORIENTED_EDGE('',*,*,#622,.T.);
#799=ORIENTED_EDGE('',*,*,#623,.T.);
#800=ORIENTED_EDGE('',*,*,#624,.T.);
#801=ORIENTED_EDGE('',*,*,#580,.T.);
#802=ORIENTED_EDGE('',*,*,#625,.T.);
#803=ORIENTED_EDGE('',*,*,#626,.T.);
#804=ORIENTED_EDGE('',*,*,#627,.T.);
#805=ORIENTED_EDGE('',*,*,#577,.T.);
#806=ORIENTED_EDGE('',*,*,#628,.T.);
#807=ORIENTED_EDGE('',*,*,#629,.T.);
#808=ORIENTED_EDGE('',*,*,#630,.T.);
#809=ORIENTED_EDGE('',*,*,#626,.F.);
#810=ORIENTED_EDGE('',*,*,#631,.T.);
#811=ORIENTED_EDGE('',*,*,#632,.T.);
#812=ORIENTED_EDGE('',*,*,#633,.T.);
#813=ORIENTED_EDGE('',*,*,#629,.F.);
#814=ORIENTED_EDGE('',*,*,#634,.T.);
#815=ORIENTED_EDGE('',*,*,#635,.T.);
#816=ORIENTED_EDGE('',*,*,#636,.T.);
#817=ORIENTED_EDGE('',*,*,#632,.F.);
#818=ORIENTED_EDGE('',*,*,#637,.T.);
#819=ORIENTED_EDGE('',*,*,#638,.T.);
#820=ORIENTED_EDGE('',*,*,#639,.T.);
#821=ORIENTED_EDGE('',*,*,#635,.F.);
#822=ORIENTED_EDGE('',*,*,#640,.T.);
#823=ORIENTED_EDGE('',*,*,#641,.T.);
#824=ORIENTED_EDGE('',*,*,#642,.T.);
#825=ORIENTED_EDGE('',*,*,#638,.F.);
#826=ORIENTED_EDGE('',*,*,#643,.T.);
#827=ORIENTED_EDGE('',*,*,#644,.T.);
#828=ORIENTED_EDGE('',*,*,#645,.T.);
#829=ORIENTED_EDGE('',*,*,#641,.F.);
#830=ORIENTED_EDGE('',*,*,#646,.T.);
#831=ORIENTED_EDGE('',*,*,#647,.T.);
#832=ORIENTED_EDGE('',*,*,#648,.T.);
#833=ORIENTED_EDGE('',*,*,#644,.F.);
#834=ORIENTED_EDGE('',*,*,#649,.T.);
#835=ORIENTED_EDGE('',*,*,#578,.T.);
#836=ORIENTED_EDGE('',*,*,#650,.T.);
#837=ORIENTED_EDGE('',*,*,#647,.F.);
#838=ORIENTED_EDGE('',*,*,#651,.T.);
#839=ORIENTED_EDGE('',*,*,#652,.T.);
#840=ORIENTED_EDGE('',*,*,#653,.T.);
#841=ORIENTED_EDGE('',*,*,#575,.T.);
#842=ORIENTED_EDGE('',*,*,#654,.T.);
#843=ORIENTED_EDGE('',*,*,#617,.F.);
#844=ORIENTED_EDGE('',*,*,#655,.T.);
#845=ORIENTED_EDGE('',*,*,#631,.F.);
#846=ORIENTED_EDGE('',*,*,#656,.T.);
#847=ORIENTED_EDGE('',*,*,#614,.F.);
#848=ORIENTED_EDGE('',*,*,#657,.F.);
#849=ORIENTED_EDGE('',*,*,#634,.F.);
#850=ORIENTED_EDGE('',*,*,#655,.F.);
#851=ORIENTED_EDGE('',*,*,#611,.F.);
#852=ORIENTED_EDGE('',*,*,#658,.T.);
#853=ORIENTED_EDGE('',*,*,#637,.F.);
#854=ORIENTED_EDGE('',*,*,#657,.T.);
#855=ORIENTED_EDGE('',*,*,#608,.F.);
#856=ORIENTED_EDGE('',*,*,#659,.F.);
#857=ORIENTED_EDGE('',*,*,#640,.F.);
#858=ORIENTED_EDGE('',*,*,#658,.F.);
#859=ORIENTED_EDGE('',*,*,#605,.F.);
#860=ORIENTED_EDGE('',*,*,#660,.T.);
#861=ORIENTED_EDGE('',*,*,#643,.F.);
#862=ORIENTED_EDGE('',*,*,#659,.T.);
#863=ORIENTED_EDGE('',*,*,#602,.F.);
#864=ORIENTED_EDGE('',*,*,#661,.F.);
#865=ORIENTED_EDGE('',*,*,#646,.F.);
#866=ORIENTED_EDGE('',*,*,#660,.F.);
#867=ORIENTED_EDGE('',*,*,#599,.F.);
#868=ORIENTED_EDGE('',*,*,#662,.T.);
#869=ORIENTED_EDGE('',*,*,#649,.F.);
#870=ORIENTED_EDGE('',*,*,#661,.T.);
#871=ORIENTED_EDGE('',*,*,#596,.F.);
#872=ORIENTED_EDGE('',*,*,#592,.F.);
#873=ORIENTED_EDGE('',*,*,#651,.F.);
#874=ORIENTED_EDGE('',*,*,#662,.F.);
#875=ORIENTED_EDGE('',*,*,#663,.T.);
#876=ORIENTED_EDGE('',*,*,#664,.T.);
#877=ORIENTED_EDGE('',*,*,#665,.T.);
#878=ORIENTED_EDGE('',*,*,#666,.T.);
#879=ORIENTED_EDGE('',*,*,#667,.T.);
#880=ORIENTED_EDGE('',*,*,#668,.T.);
#881=ORIENTED_EDGE('',*,*,#622,.F.);
#882=ORIENTED_EDGE('',*,*,#595,.F.);
#883=ORIENTED_EDGE('',*,*,#598,.F.);
#884=ORIENTED_EDGE('',*,*,#601,.F.);
#885=ORIENTED_EDGE('',*,*,#604,.F.);
#886=ORIENTED_EDGE('',*,*,#607,.F.);
#887=ORIENTED_EDGE('',*,*,#610,.F.);
#888=ORIENTED_EDGE('',*,*,#613,.F.);
#889=ORIENTED_EDGE('',*,*,#616,.F.);
#890=ORIENTED_EDGE('',*,*,#618,.F.);
#891=ORIENTED_EDGE('',*,*,#587,.F.);
#892=ORIENTED_EDGE('',*,*,#669,.T.);
#893=ORIENTED_EDGE('',*,*,#670,.F.);
#894=ORIENTED_EDGE('',*,*,#671,.F.);
#895=ORIENTED_EDGE('',*,*,#672,.F.);
#896=ORIENTED_EDGE('',*,*,#673,.T.);
#897=ORIENTED_EDGE('',*,*,#588,.F.);
#898=ORIENTED_EDGE('',*,*,#584,.F.);
#899=ORIENTED_EDGE('',*,*,#653,.F.);
#900=ORIENTED_EDGE('',*,*,#674,.F.);
#901=ORIENTED_EDGE('',*,*,#586,.F.);
#902=ORIENTED_EDGE('',*,*,#674,.T.);
#903=ORIENTED_EDGE('',*,*,#652,.F.);
#904=ORIENTED_EDGE('',*,*,#675,.F.);
#905=ORIENTED_EDGE('',*,*,#676,.F.);
#906=ORIENTED_EDGE('',*,*,#677,.F.);
#907=ORIENTED_EDGE('',*,*,#678,.F.);
#908=ORIENTED_EDGE('',*,*,#669,.F.);
#909=ORIENTED_EDGE('',*,*,#679,.T.);
#910=ORIENTED_EDGE('',*,*,#624,.F.);
#911=ORIENTED_EDGE('',*,*,#680,.T.);
#912=ORIENTED_EDGE('',*,*,#681,.F.);
#913=ORIENTED_EDGE('',*,*,#682,.F.);
#914=ORIENTED_EDGE('',*,*,#683,.F.);
#915=ORIENTED_EDGE('',*,*,#675,.T.);
#916=ORIENTED_EDGE('',*,*,#654,.F.);
#917=ORIENTED_EDGE('',*,*,#627,.F.);
#918=ORIENTED_EDGE('',*,*,#630,.F.);
#919=ORIENTED_EDGE('',*,*,#633,.F.);
#920=ORIENTED_EDGE('',*,*,#636,.F.);
#921=ORIENTED_EDGE('',*,*,#639,.F.);
#922=ORIENTED_EDGE('',*,*,#642,.F.);
#923=ORIENTED_EDGE('',*,*,#645,.F.);
#924=ORIENTED_EDGE('',*,*,#648,.F.);
#925=ORIENTED_EDGE('',*,*,#650,.F.);
#926=ORIENTED_EDGE('',*,*,#684,.T.);
#927=ORIENTED_EDGE('',*,*,#685,.T.);
#928=ORIENTED_EDGE('',*,*,#672,.T.);
#929=ORIENTED_EDGE('',*,*,#686,.T.);
#930=ORIENTED_EDGE('',*,*,#687,.T.);
#931=ORIENTED_EDGE('',*,*,#686,.F.);
#932=ORIENTED_EDGE('',*,*,#671,.T.);
#933=ORIENTED_EDGE('',*,*,#688,.T.);
#934=ORIENTED_EDGE('',*,*,#670,.T.);
#935=ORIENTED_EDGE('',*,*,#678,.T.);
#936=ORIENTED_EDGE('',*,*,#689,.T.);
#937=ORIENTED_EDGE('',*,*,#688,.F.);
#938=ORIENTED_EDGE('',*,*,#684,.F.);
#939=ORIENTED_EDGE('',*,*,#690,.T.);
#940=ORIENTED_EDGE('',*,*,#691,.F.);
#941=ORIENTED_EDGE('',*,*,#692,.F.);
#942=ORIENTED_EDGE('',*,*,#687,.F.);
#943=ORIENTED_EDGE('',*,*,#693,.T.);
#944=ORIENTED_EDGE('',*,*,#694,.F.);
#945=ORIENTED_EDGE('',*,*,#690,.F.);
#946=ORIENTED_EDGE('',*,*,#689,.F.);
#947=ORIENTED_EDGE('',*,*,#677,.T.);
#948=ORIENTED_EDGE('',*,*,#695,.F.);
#949=ORIENTED_EDGE('',*,*,#693,.F.);
#950=ORIENTED_EDGE('',*,*,#695,.T.);
#951=ORIENTED_EDGE('',*,*,#676,.T.);
#952=ORIENTED_EDGE('',*,*,#683,.T.);
#953=ORIENTED_EDGE('',*,*,#696,.T.);
#954=ORIENTED_EDGE('',*,*,#682,.T.);
#955=ORIENTED_EDGE('',*,*,#697,.T.);
#956=ORIENTED_EDGE('',*,*,#694,.T.);
#957=ORIENTED_EDGE('',*,*,#696,.F.);
#958=ORIENTED_EDGE('',*,*,#681,.T.);
#959=ORIENTED_EDGE('',*,*,#698,.T.);
#960=ORIENTED_EDGE('',*,*,#691,.T.);
#961=ORIENTED_EDGE('',*,*,#697,.F.);
#962=ORIENTED_EDGE('',*,*,#679,.F.);
#963=ORIENTED_EDGE('',*,*,#699,.T.);
#964=ORIENTED_EDGE('',*,*,#700,.F.);
#965=ORIENTED_EDGE('',*,*,#699,.F.);
#966=ORIENTED_EDGE('',*,*,#701,.F.);
#967=ORIENTED_EDGE('',*,*,#702,.T.);
#968=ORIENTED_EDGE('',*,*,#703,.F.);
#969=ORIENTED_EDGE('',*,*,#704,.F.);
#970=ORIENTED_EDGE('',*,*,#705,.F.);
#971=ORIENTED_EDGE('',*,*,#704,.T.);
#972=ORIENTED_EDGE('',*,*,#706,.F.);
#973=ORIENTED_EDGE('',*,*,#707,.F.);
#974=ORIENTED_EDGE('',*,*,#708,.F.);
#975=ORIENTED_EDGE('',*,*,#707,.T.);
#976=ORIENTED_EDGE('',*,*,#709,.F.);
#977=ORIENTED_EDGE('',*,*,#710,.F.);
#978=ORIENTED_EDGE('',*,*,#711,.F.);
#979=ORIENTED_EDGE('',*,*,#710,.T.);
#980=ORIENTED_EDGE('',*,*,#712,.F.);
#981=ORIENTED_EDGE('',*,*,#713,.F.);
#982=ORIENTED_EDGE('',*,*,#714,.F.);
#983=ORIENTED_EDGE('',*,*,#713,.T.);
#984=ORIENTED_EDGE('',*,*,#715,.F.);
#985=ORIENTED_EDGE('',*,*,#716,.F.);
#986=ORIENTED_EDGE('',*,*,#717,.F.);
#987=ORIENTED_EDGE('',*,*,#716,.T.);
#988=ORIENTED_EDGE('',*,*,#718,.F.);
#989=ORIENTED_EDGE('',*,*,#702,.F.);
#990=ORIENTED_EDGE('',*,*,#718,.T.);
#991=ORIENTED_EDGE('',*,*,#715,.T.);
#992=ORIENTED_EDGE('',*,*,#712,.T.);
#993=ORIENTED_EDGE('',*,*,#709,.T.);
#994=ORIENTED_EDGE('',*,*,#706,.T.);
#995=ORIENTED_EDGE('',*,*,#703,.T.);
#996=ORIENTED_EDGE('',*,*,#700,.T.);
#997=ORIENTED_EDGE('',*,*,#719,.T.);
#998=ORIENTED_EDGE('',*,*,#720,.T.);
#999=ORIENTED_EDGE('',*,*,#721,.F.);
#1000=ORIENTED_EDGE('',*,*,#720,.F.);
#1001=ORIENTED_EDGE('',*,*,#663,.F.);
#1002=ORIENTED_EDGE('',*,*,#722,.T.);
#1003=ORIENTED_EDGE('',*,*,#723,.T.);
#1004=ORIENTED_EDGE('',*,*,#724,.F.);
#1005=ORIENTED_EDGE('',*,*,#668,.F.);
#1006=ORIENTED_EDGE('',*,*,#725,.T.);
#1007=ORIENTED_EDGE('',*,*,#726,.T.);
#1008=ORIENTED_EDGE('',*,*,#722,.F.);
#1009=ORIENTED_EDGE('',*,*,#667,.F.);
#1010=ORIENTED_EDGE('',*,*,#727,.T.);
#1011=ORIENTED_EDGE('',*,*,#728,.T.);
#1012=ORIENTED_EDGE('',*,*,#725,.F.);
#1013=ORIENTED_EDGE('',*,*,#666,.F.);
#1014=ORIENTED_EDGE('',*,*,#729,.T.);
#1015=ORIENTED_EDGE('',*,*,#730,.T.);
#1016=ORIENTED_EDGE('',*,*,#727,.F.);
#1017=ORIENTED_EDGE('',*,*,#665,.F.);
#1018=ORIENTED_EDGE('',*,*,#731,.T.);
#1019=ORIENTED_EDGE('',*,*,#732,.T.);
#1020=ORIENTED_EDGE('',*,*,#729,.F.);
#1021=ORIENTED_EDGE('',*,*,#664,.F.);
#1022=ORIENTED_EDGE('',*,*,#724,.T.);
#1023=ORIENTED_EDGE('',*,*,#733,.T.);
#1024=ORIENTED_EDGE('',*,*,#731,.F.);
#1025=ORIENTED_EDGE('',*,*,#733,.F.);
#1026=ORIENTED_EDGE('',*,*,#723,.F.);
#1027=ORIENTED_EDGE('',*,*,#726,.F.);
#1028=ORIENTED_EDGE('',*,*,#728,.F.);
#1029=ORIENTED_EDGE('',*,*,#730,.F.);
#1030=ORIENTED_EDGE('',*,*,#732,.F.);
#1031=ORIENTED_EDGE('',*,*,#719,.F.);
#1032=ORIENTED_EDGE('',*,*,#619,.F.);
#1033=ORIENTED_EDGE('',*,*,#656,.F.);
#1034=ORIENTED_EDGE('',*,*,#628,.F.);
#1035=ORIENTED_EDGE('',*,*,#585,.F.);
#1036=ORIENTED_EDGE('',*,*,#701,.T.);
#1037=ORIENTED_EDGE('',*,*,#705,.T.);
#1038=ORIENTED_EDGE('',*,*,#708,.T.);
#1039=ORIENTED_EDGE('',*,*,#711,.T.);
#1040=ORIENTED_EDGE('',*,*,#714,.T.);
#1041=ORIENTED_EDGE('',*,*,#717,.T.);
#1042=ORIENTED_EDGE('',*,*,#620,.F.);
#1043=ORIENTED_EDGE('',*,*,#673,.F.);
#1044=ORIENTED_EDGE('',*,*,#685,.F.);
#1045=ORIENTED_EDGE('',*,*,#692,.T.);
#1046=ORIENTED_EDGE('',*,*,#698,.F.);
#1047=ORIENTED_EDGE('',*,*,#680,.F.);
#1048=ORIENTED_EDGE('',*,*,#623,.F.);
#1049=ORIENTED_EDGE('',*,*,#734,.F.);
#1050=ORIENTED_EDGE('',*,*,#721,.T.);
#1051=ORIENTED_EDGE('',*,*,#621,.F.);
#1052=ORIENTED_EDGE('',*,*,#734,.T.);
#1053=ORIENTED_EDGE('',*,*,#625,.F.);
#1054=ORIENTED_EDGE('',*,*,#593,.F.);
#1055=SPHERICAL_SURFACE('',#1150,0.5);
#1056=SPHERICAL_SURFACE('',#1154,0.5);
#1057=SPHERICAL_SURFACE('',#1158,0.499999999999998);
#1058=SPHERICAL_SURFACE('',#1165,0.5);
#1059=ADVANCED_FACE('',(#277),#1055,.T.);
#1060=ADVANCED_FACE('',(#278),#1056,.T.);
#1061=ADVANCED_FACE('',(#279),#1057,.T.);
#1062=ADVANCED_FACE('',(#280),#253,.T.);
#1063=ADVANCED_FACE('',(#281),#254,.T.);
#1064=ADVANCED_FACE('',(#282),#1058,.T.);
#1065=ADVANCED_FACE('',(#283),#255,.T.);
#1066=ADVANCED_FACE('',(#284),#256,.T.);
#1067=ADVANCED_FACE('',(#285),#61,.T.);
#1068=ADVANCED_FACE('',(#286),#257,.T.);
#1069=ADVANCED_FACE('',(#287),#62,.T.);
#1070=ADVANCED_FACE('',(#288),#258,.T.);
#1071=ADVANCED_FACE('',(#289),#63,.T.);
#1072=ADVANCED_FACE('',(#290),#259,.T.);
#1073=ADVANCED_FACE('',(#291),#64,.T.);
#1074=ADVANCED_FACE('',(#292),#260,.T.);
#1075=ADVANCED_FACE('',(#293),#261,.T.);
#1076=ADVANCED_FACE('',(#294),#262,.T.);
#1077=ADVANCED_FACE('',(#295),#263,.T.);
#1078=ADVANCED_FACE('',(#296),#65,.T.);
#1079=ADVANCED_FACE('',(#297),#264,.T.);
#1080=ADVANCED_FACE('',(#298),#66,.T.);
#1081=ADVANCED_FACE('',(#299),#265,.T.);
#1082=ADVANCED_FACE('',(#300),#67,.T.);
#1083=ADVANCED_FACE('',(#301),#266,.T.);
#1084=ADVANCED_FACE('',(#302),#68,.T.);
#1085=ADVANCED_FACE('',(#303),#267,.T.);
#1086=ADVANCED_FACE('',(#304),#268,.T.);
#1087=ADVANCED_FACE('',(#305),#269,.F.);
#1088=ADVANCED_FACE('',(#306),#33,.T.);
#1089=ADVANCED_FACE('',(#307),#270,.T.);
#1090=ADVANCED_FACE('',(#308),#34,.T.);
#1091=ADVANCED_FACE('',(#309),#271,.T.);
#1092=ADVANCED_FACE('',(#310),#35,.T.);
#1093=ADVANCED_FACE('',(#311),#272,.F.);
#1094=ADVANCED_FACE('',(#312,#27),#36,.T.);
#1095=ADVANCED_FACE('',(#313),#37,.F.);
#1096=ADVANCED_FACE('',(#314),#38,.T.);
#1097=ADVANCED_FACE('',(#315,#28),#39,.T.);
#1098=ADVANCED_FACE('',(#316),#40,.T.);
#1099=ADVANCED_FACE('',(#317),#19,.F.);
#1100=ADVANCED_FACE('',(#318),#41,.T.);
#1101=ADVANCED_FACE('',(#319),#20,.F.);
#1102=ADVANCED_FACE('',(#320),#273,.F.);
#1103=ADVANCED_FACE('',(#321),#42,.T.);
#1104=ADVANCED_FACE('',(#322),#274,.F.);
#1105=ADVANCED_FACE('',(#323),#21,.F.);
#1106=ADVANCED_FACE('',(#324),#43,.T.);
#1107=ADVANCED_FACE('',(#325),#22,.F.);
#1108=ADVANCED_FACE('',(#326),#275,.F.);
#1109=ADVANCED_FACE('',(#327),#44,.T.);
#1110=ADVANCED_FACE('',(#328),#45,.T.);
#1111=ADVANCED_FACE('',(#329),#46,.T.);
#1112=ADVANCED_FACE('',(#330),#47,.T.);
#1113=ADVANCED_FACE('',(#331),#48,.T.);
#1114=ADVANCED_FACE('',(#332),#49,.T.);
#1115=ADVANCED_FACE('',(#333,#29),#50,.F.);
#1116=ADVANCED_FACE('',(#334),#276,.F.);
#1117=ADVANCED_FACE('',(#335),#51,.F.);
#1118=ADVANCED_FACE('',(#336),#52,.F.);
#1119=ADVANCED_FACE('',(#337),#53,.F.);
#1120=ADVANCED_FACE('',(#338),#54,.F.);
#1121=ADVANCED_FACE('',(#339),#55,.F.);
#1122=ADVANCED_FACE('',(#340),#56,.F.);
#1123=ADVANCED_FACE('',(#341,#30),#57,.T.);
#1124=ADVANCED_FACE('',(#342,#31),#58,.T.);
#1125=ADVANCED_FACE('',(#343,#32),#59,.T.);
#1126=ADVANCED_FACE('',(#344),#60,.T.);
#1127=CLOSED_SHELL('',(#1059,#1060,#1061,#1062,#1063,#1064,#1065,#1066,
#1067,#1068,#1069,#1070,#1071,#1072,#1073,#1074,#1075,#1076,#1077,#1078,
#1079,#1080,#1081,#1082,#1083,#1084,#1085,#1086,#1087,#1088,#1089,#1090,
#1091,#1092,#1093,#1094,#1095,#1096,#1097,#1098,#1099,#1100,#1101,#1102,
#1103,#1104,#1105,#1106,#1107,#1108,#1109,#1110,#1111,#1112,#1113,#1114,
#1115,#1116,#1117,#1118,#1119,#1120,#1121,#1122,#1123,#1124,#1125,#1126));
#1128=DERIVED_UNIT_ELEMENT(#1131,1.);
#1129=DERIVED_UNIT_ELEMENT(#1980,-3.);
#1130=DIMENSIONAL_EXPONENTS(0.,1.,0.,0.,0.,0.,0.);
#1131=(
CONVERSION_BASED_UNIT('gram',#1133)
MASS_UNIT()
NAMED_UNIT(#1130)
);
#1132=(
MASS_UNIT()
NAMED_UNIT(*)
SI_UNIT(.KILO.,.GRAM.)
);
#1133=MASS_MEASURE_WITH_UNIT(MASS_MEASURE(0.001),#1132);
#1134=DERIVED_UNIT((#1128,#1129));
#1135=MEASURE_REPRESENTATION_ITEM('density measure',
POSITIVE_RATIO_MEASURE(1.),#1134);
#1136=PROPERTY_DEFINITION_REPRESENTATION(#1141,#1138);
#1137=PROPERTY_DEFINITION_REPRESENTATION(#1142,#1139);
#1138=REPRESENTATION('material name',(#1140),#1977);
#1139=REPRESENTATION('density',(#1135),#1977);
#1140=DESCRIPTIVE_REPRESENTATION_ITEM('V\X2\0161\X0\eobecn\X\E9',
'V\X2\0161\X0\eobecn\X\E9');
#1141=PROPERTY_DEFINITION('material property','material name',#1987);
#1142=PROPERTY_DEFINITION('material property','density of part',#1987);
#1143=DATE_TIME_ROLE('creation_date');
#1144=APPLIED_DATE_AND_TIME_ASSIGNMENT(#1145,#1143,(#1987));
#1145=DATE_AND_TIME(#1146,#1147);
#1146=CALENDAR_DATE(2026,28,3);
#1147=LOCAL_TIME(0,0,0.,#1148);
#1148=COORDINATED_UNIVERSAL_TIME_OFFSET(0,0,.BEHIND.);
#1149=AXIS2_PLACEMENT_3D('',#1628,#1278,#1279);
#1150=AXIS2_PLACEMENT_3D('',#1629,#1280,#1281);
#1151=AXIS2_PLACEMENT_3D('',#1632,#1282,#1283);
#1152=AXIS2_PLACEMENT_3D('',#1634,#1284,#1285);
#1153=AXIS2_PLACEMENT_3D('',#1635,#1286,#1287);
#1154=AXIS2_PLACEMENT_3D('',#1636,#1288,#1289);
#1155=AXIS2_PLACEMENT_3D('',#1639,#1290,#1291);
#1156=AXIS2_PLACEMENT_3D('',#1641,#1292,#1293);
#1157=AXIS2_PLACEMENT_3D('',#1642,#1294,#1295);
#1158=AXIS2_PLACEMENT_3D('',#1643,#1296,#1297);
#1159=AXIS2_PLACEMENT_3D('',#1646,#1298,#1299);
#1160=AXIS2_PLACEMENT_3D('',#1648,#1300,#1301);
#1161=AXIS2_PLACEMENT_3D('',#1649,#1302,#1303);
#1162=AXIS2_PLACEMENT_3D('',#1650,#1304,#1305);
#1163=AXIS2_PLACEMENT_3D('',#1653,#1308,#1309);
#1164=AXIS2_PLACEMENT_3D('',#1656,#1310,#1311);
#1165=AXIS2_PLACEMENT_3D('',#1659,#1314,#1315);
#1166=AXIS2_PLACEMENT_3D('',#1662,#1316,#1317);
#1167=AXIS2_PLACEMENT_3D('',#1664,#1318,#1319);
#1168=AXIS2_PLACEMENT_3D('',#1665,#1320,#1321);
#1169=AXIS2_PLACEMENT_3D('',#1666,#1322,#1323);
#1170=AXIS2_PLACEMENT_3D('',#1669,#1326,#1327);
#1171=AXIS2_PLACEMENT_3D('',#1672,#1328,#1329);
#1172=AXIS2_PLACEMENT_3D('',#1675,#1332,#1333);
#1173=AXIS2_PLACEMENT_3D('',#1678,#1334,#1335);
#1174=AXIS2_PLACEMENT_3D('',#1679,#1336,#1337);
#1175=AXIS2_PLACEMENT_3D('',#1680,#1338,#1339);
#1176=AXIS2_PLACEMENT_3D('',#1681,#1340,#1341);
#1177=AXIS2_PLACEMENT_3D('',#1684,#1342,#1343);
#1178=AXIS2_PLACEMENT_3D('',#1687,#1346,#1347);
#1179=AXIS2_PLACEMENT_3D('',#1690,#1348,#1349);
#1180=AXIS2_PLACEMENT_3D('',#1691,#1350,#1351);
#1181=AXIS2_PLACEMENT_3D('',#1692,#1352,#1353);
#1182=AXIS2_PLACEMENT_3D('',#1693,#1354,#1355);
#1183=AXIS2_PLACEMENT_3D('',#1696,#1356,#1357);
#1184=AXIS2_PLACEMENT_3D('',#1699,#1360,#1361);
#1185=AXIS2_PLACEMENT_3D('',#1702,#1362,#1363);
#1186=AXIS2_PLACEMENT_3D('',#1703,#1364,#1365);
#1187=AXIS2_PLACEMENT_3D('',#1704,#1366,#1367);
#1188=AXIS2_PLACEMENT_3D('',#1705,#1368,#1369);
#1189=AXIS2_PLACEMENT_3D('',#1708,#1370,#1371);
#1190=AXIS2_PLACEMENT_3D('',#1711,#1374,#1375);
#1191=AXIS2_PLACEMENT_3D('',#1714,#1376,#1377);
#1192=AXIS2_PLACEMENT_3D('',#1715,#1378,#1379);
#1193=AXIS2_PLACEMENT_3D('',#1716,#1380,#1381);
#1194=AXIS2_PLACEMENT_3D('',#1717,#1382,#1383);
#1195=AXIS2_PLACEMENT_3D('',#1720,#1386,#1387);
#1196=AXIS2_PLACEMENT_3D('',#1723,#1388,#1389);
#1197=AXIS2_PLACEMENT_3D('',#1726,#1392,#1393);
#1198=AXIS2_PLACEMENT_3D('',#1729,#1394,#1395);
#1199=AXIS2_PLACEMENT_3D('',#1732,#1398,#1399);
#1200=AXIS2_PLACEMENT_3D('',#1735,#1400,#1401);
#1201=AXIS2_PLACEMENT_3D('',#1738,#1404,#1405);
#1202=AXIS2_PLACEMENT_3D('',#1741,#1406,#1407);
#1203=AXIS2_PLACEMENT_3D('',#1742,#1408,#1409);
#1204=AXIS2_PLACEMENT_3D('',#1743,#1410,#1411);
#1205=AXIS2_PLACEMENT_3D('',#1744,#1412,#1413);
#1206=AXIS2_PLACEMENT_3D('',#1747,#1414,#1415);
#1207=AXIS2_PLACEMENT_3D('',#1750,#1418,#1419);
#1208=AXIS2_PLACEMENT_3D('',#1753,#1420,#1421);
#1209=AXIS2_PLACEMENT_3D('',#1754,#1422,#1423);
#1210=AXIS2_PLACEMENT_3D('',#1755,#1424,#1425);
#1211=AXIS2_PLACEMENT_3D('',#1756,#1426,#1427);
#1212=AXIS2_PLACEMENT_3D('',#1759,#1428,#1429);
#1213=AXIS2_PLACEMENT_3D('',#1762,#1432,#1433);
#1214=AXIS2_PLACEMENT_3D('',#1765,#1434,#1435);
#1215=AXIS2_PLACEMENT_3D('',#1766,#1436,#1437);
#1216=AXIS2_PLACEMENT_3D('',#1767,#1438,#1439);
#1217=AXIS2_PLACEMENT_3D('',#1768,#1440,#1441);
#1218=AXIS2_PLACEMENT_3D('',#1771,#1442,#1443);
#1219=AXIS2_PLACEMENT_3D('',#1774,#1446,#1447);
#1220=AXIS2_PLACEMENT_3D('',#1777,#1448,#1449);
#1221=AXIS2_PLACEMENT_3D('',#1778,#1450,#1451);
#1222=AXIS2_PLACEMENT_3D('',#1779,#1452,#1453);
#1223=AXIS2_PLACEMENT_3D('',#1780,#1454,#1455);
#1224=AXIS2_PLACEMENT_3D('',#1783,#1458,#1459);
#1225=AXIS2_PLACEMENT_3D('',#1786,#1460,#1461);
#1226=AXIS2_PLACEMENT_3D('',#1789,#1464,#1465);
#1227=AXIS2_PLACEMENT_3D('',#1792,#1468,#1469);
#1228=AXIS2_PLACEMENT_3D('',#1794,#1471,#1472);
#1229=AXIS2_PLACEMENT_3D('',#1796,#1474,#1475);
#1230=AXIS2_PLACEMENT_3D('',#1798,#1477,#1478);
#1231=AXIS2_PLACEMENT_3D('',#1800,#1480,#1481);
#1232=AXIS2_PLACEMENT_3D('',#1802,#1483,#1484);
#1233=AXIS2_PLACEMENT_3D('',#1804,#1486,#1487);
#1234=AXIS2_PLACEMENT_3D('',#1817,#1494,#1495);
#1235=AXIS2_PLACEMENT_3D('',#1821,#1497,#1498);
#1236=AXIS2_PLACEMENT_3D('',#1825,#1500,#1501);
#1237=AXIS2_PLACEMENT_3D('',#1827,#1503,#1504);
#1238=AXIS2_PLACEMENT_3D('',#1829,#1506,#1507);
#1239=AXIS2_PLACEMENT_3D('',#1843,#1510,#1511);
#1240=AXIS2_PLACEMENT_3D('',#1844,#1512,#1513);
#1241=AXIS2_PLACEMENT_3D('',#1848,#1515,#1516);
#1242=AXIS2_PLACEMENT_3D('',#1851,#1518,#1519);
#1243=AXIS2_PLACEMENT_3D('',#1852,#1520,#1521);
#1244=AXIS2_PLACEMENT_3D('',#1855,#1522,#1523);
#1245=AXIS2_PLACEMENT_3D('',#1863,#1524,#1525);
#1246=AXIS2_PLACEMENT_3D('',#1870,#1527,#1528);
#1247=AXIS2_PLACEMENT_3D('',#1871,#1529,#1530);
#1248=AXIS2_PLACEMENT_3D('',#1872,#1531,#1532);
#1249=AXIS2_PLACEMENT_3D('',#1876,#1534,#1535);
#1250=AXIS2_PLACEMENT_3D('',#1878,#1537,#1538);
#1251=AXIS2_PLACEMENT_3D('',#1882,#1541,#1542);
#1252=AXIS2_PLACEMENT_3D('',#1883,#1543,#1544);
#1253=AXIS2_PLACEMENT_3D('',#1884,#1545,#1546);
#1254=AXIS2_PLACEMENT_3D('',#1889,#1547,#1548);
#1255=AXIS2_PLACEMENT_3D('',#1894,#1549,#1550);
#1256=AXIS2_PLACEMENT_3D('',#1899,#1551,#1552);
#1257=AXIS2_PLACEMENT_3D('',#1902,#1554,#1555);
#1258=AXIS2_PLACEMENT_3D('',#1903,#1556,#1557);
#1259=AXIS2_PLACEMENT_3D('',#1912,#1562,#1563);
#1260=AXIS2_PLACEMENT_3D('',#1918,#1567,#1568);
#1261=AXIS2_PLACEMENT_3D('',#1924,#1572,#1573);
#1262=AXIS2_PLACEMENT_3D('',#1930,#1577,#1578);
#1263=AXIS2_PLACEMENT_3D('',#1936,#1582,#1583);
#1264=AXIS2_PLACEMENT_3D('',#1939,#1586,#1587);
#1265=AXIS2_PLACEMENT_3D('',#1940,#1588,#1589);
#1266=AXIS2_PLACEMENT_3D('',#1942,#1590,#1591);
#1267=AXIS2_PLACEMENT_3D('',#1945,#1593,#1594);
#1268=AXIS2_PLACEMENT_3D('',#1946,#1595,#1596);
#1269=AXIS2_PLACEMENT_3D('',#1952,#1600,#1601);
#1270=AXIS2_PLACEMENT_3D('',#1956,#1604,#1605);
#1271=AXIS2_PLACEMENT_3D('',#1960,#1608,#1609);
#1272=AXIS2_PLACEMENT_3D('',#1964,#1612,#1613);
#1273=AXIS2_PLACEMENT_3D('',#1968,#1616,#1617);
#1274=AXIS2_PLACEMENT_3D('',#1970,#1619,#1620);
#1275=AXIS2_PLACEMENT_3D('',#1971,#1621,#1622);
#1276=AXIS2_PLACEMENT_3D('',#1972,#1623,#1624);
#1277=AXIS2_PLACEMENT_3D('',#1974,#1626,#1627);
#1278=DIRECTION('axis',(0.,0.,1.));
#1279=DIRECTION('refdir',(1.,0.,0.));
#1280=DIRECTION('center_axis',(0.408248290463863,-0.816496580927725,0.408248290463865));
#1281=DIRECTION('ref_axis',(0.577350269189623,0.577350269189627,0.577350269189628));
#1282=DIRECTION('center_axis',(0.,1.,0.));
#1283=DIRECTION('ref_axis',(1.,0.,0.));
#1284=DIRECTION('center_axis',(0.,0.,1.));
#1285=DIRECTION('ref_axis',(0.,1.,0.));
#1286=DIRECTION('center_axis',(1.,-4.44089209850063E-15,0.));
#1287=DIRECTION('ref_axis',(0.,0.,1.));
#1288=DIRECTION('center_axis',(-0.408248290463863,0.408248290463863,-0.816496580927726));
#1289=DIRECTION('ref_axis',(-0.577350269189626,0.577350269189626,0.577350269189626));
#1290=DIRECTION('center_axis',(-1.,0.,0.));
#1291=DIRECTION('ref_axis',(0.,1.,0.));
#1292=DIRECTION('center_axis',(0.,0.,1.));
#1293=DIRECTION('ref_axis',(-1.,0.,0.));
#1294=DIRECTION('center_axis',(0.,1.,0.));
#1295=DIRECTION('ref_axis',(0.,0.,1.));
#1296=DIRECTION('center_axis',(0.408248290463861,-0.816496580927725,-0.408248290463866));
#1297=DIRECTION('ref_axis',(0.577350269189624,0.577350269189626,-0.577350269189627));
#1298=DIRECTION('center_axis',(1.,0.,-4.44089209850063E-15));
#1299=DIRECTION('ref_axis',(0.,1.,0.));
#1300=DIRECTION('center_axis',(0.,0.,-1.));
#1301=DIRECTION('ref_axis',(1.,0.,0.));
#1302=DIRECTION('center_axis',(0.,1.,0.));
#1303=DIRECTION('ref_axis',(0.,0.,-1.));
#1304=DIRECTION('center_axis',(0.,0.,1.));
#1305=DIRECTION('ref_axis',(0.707106781186546,0.707106781186549,0.));
#1306=DIRECTION('',(0.,0.,-1.));
#1307=DIRECTION('',(0.,0.,1.));
#1308=DIRECTION('center_axis',(0.,-1.,0.));
#1309=DIRECTION('ref_axis',(0.707106781186549,0.,-0.707106781186546));
#1310=DIRECTION('center_axis',(0.,1.,0.));
#1311=DIRECTION('ref_axis',(0.707106781186549,0.,-0.707106781186546));
#1312=DIRECTION('',(0.,1.,0.));
#1313=DIRECTION('',(0.,-1.,0.));
#1314=DIRECTION('center_axis',(0.408248290463863,-0.408248290463863,-0.816496580927726));
#1315=DIRECTION('ref_axis',(-0.577350269189626,0.577350269189626,-0.577350269189626));
#1316=DIRECTION('center_axis',(0.,1.,0.));
#1317=DIRECTION('ref_axis',(-1.,0.,0.));
#1318=DIRECTION('center_axis',(0.,0.,-1.));
#1319=DIRECTION('ref_axis',(0.,1.,0.));
#1320=DIRECTION('center_axis',(-1.,0.,0.));
#1321=DIRECTION('ref_axis',(0.,0.,-1.));
#1322=DIRECTION('center_axis',(0.,0.,1.));
#1323=DIRECTION('ref_axis',(-0.707106781186549,0.707106781186546,0.));
#1324=DIRECTION('',(0.,0.,-1.));
#1325=DIRECTION('',(0.,0.,1.));
#1326=DIRECTION('center_axis',(1.,-7.4014868308344E-17,0.));
#1327=DIRECTION('ref_axis',(0.,0.707106781186547,-0.707106781186548));
#1328=DIRECTION('center_axis',(-1.,0.,0.));
#1329=DIRECTION('ref_axis',(0.,1.,0.));
#1330=DIRECTION('',(-1.,7.4014868308344E-17,0.));
#1331=DIRECTION('',(1.,-7.4014868308344E-17,0.));
#1332=DIRECTION('center_axis',(0.,0.,-1.));
#1333=DIRECTION('ref_axis',(-1.,0.,0.));
#1334=DIRECTION('center_axis',(-0.970142500145332,-0.242535625036331,0.));
#1335=DIRECTION('ref_axis',(-0.242535625036331,0.970142500145332,0.));
#1336=DIRECTION('center_axis',(0.,0.,-1.));
#1337=DIRECTION('ref_axis',(0.122183263695704,-0.992507556682903,0.));
#1338=DIRECTION('center_axis',(0.,0.,1.));
#1339=DIRECTION('ref_axis',(0.122183263695704,-0.992507556682903,0.));
#1340=DIRECTION('center_axis',(0.970142500145332,0.242535625036331,0.));
#1341=DIRECTION('ref_axis',(-0.171498585142507,0.685994340570035,-0.707106781186548));
#1342=DIRECTION('center_axis',(-0.970142500145332,-0.242535625036331,0.));
#1343=DIRECTION('ref_axis',(-0.242535625036331,0.970142500145332,0.));
#1344=DIRECTION('',(-0.970142500145332,-0.242535625036331,0.));
#1345=DIRECTION('',(0.970142500145332,0.242535625036331,0.));
#1346=DIRECTION('center_axis',(0.,0.,1.));
#1347=DIRECTION('ref_axis',(1.,0.,0.));
#1348=DIRECTION('center_axis',(-1.,0.,0.));
#1349=DIRECTION('ref_axis',(0.,1.,0.));
#1350=DIRECTION('center_axis',(0.,0.,1.));
#1351=DIRECTION('ref_axis',(-0.122183263695704,0.992507556682903,0.));
#1352=DIRECTION('center_axis',(0.,0.,-1.));
#1353=DIRECTION('ref_axis',(-0.122183263695704,0.992507556682903,0.));
#1354=DIRECTION('center_axis',(1.,0.,0.));
#1355=DIRECTION('ref_axis',(0.,0.707106781186548,-0.707106781186548));
#1356=DIRECTION('center_axis',(-1.,0.,0.));
#1357=DIRECTION('ref_axis',(0.,1.,0.));
#1358=DIRECTION('',(-1.,0.,0.));
#1359=DIRECTION('',(1.,0.,0.));
#1360=DIRECTION('center_axis',(0.,0.,1.));
#1361=DIRECTION('ref_axis',(1.,0.,0.));
#1362=DIRECTION('center_axis',(-0.970142500145332,0.242535625036331,0.));
#1363=DIRECTION('ref_axis',(0.242535625036331,0.970142500145332,0.));
#1364=DIRECTION('center_axis',(0.,0.,1.));
#1365=DIRECTION('ref_axis',(0.122183263695704,0.992507556682903,0.));
#1366=DIRECTION('center_axis',(0.,0.,-1.));
#1367=DIRECTION('ref_axis',(0.122183263695704,0.992507556682903,0.));
#1368=DIRECTION('center_axis',(0.970142500145332,-0.242535625036331,0.));
#1369=DIRECTION('ref_axis',(0.171498585142509,0.685994340570036,-0.707106781186547));
#1370=DIRECTION('center_axis',(-0.970142500145333,0.242535625036331,0.));
#1371=DIRECTION('ref_axis',(0.24253562503633,0.970142500145332,0.));
#1372=DIRECTION('',(-0.970142500145332,0.242535625036331,0.));
#1373=DIRECTION('',(0.970142500145332,-0.242535625036331,0.));
#1374=DIRECTION('center_axis',(0.,0.,-1.));
#1375=DIRECTION('ref_axis',(-1.,0.,0.));
#1376=DIRECTION('center_axis',(-1.,0.,0.));
#1377=DIRECTION('ref_axis',(0.,1.,0.));
#1378=DIRECTION('center_axis',(0.,0.,-1.));
#1379=DIRECTION('ref_axis',(-0.122183263695704,-0.992507556682903,0.));
#1380=DIRECTION('center_axis',(0.,0.,1.));
#1381=DIRECTION('ref_axis',(-0.122183263695704,-0.992507556682903,0.));
#1382=DIRECTION('center_axis',(1.,7.4014868308344E-17,0.));
#1383=DIRECTION('ref_axis',(0.,0.707106781186547,-0.707106781186548));
#1384=DIRECTION('',(-1.,-7.4014868308344E-17,0.));
#1385=DIRECTION('',(1.,7.4014868308344E-17,0.));
#1386=DIRECTION('center_axis',(0.,1.,0.));
#1387=DIRECTION('ref_axis',(-0.707106781186549,0.,-0.707106781186546));
#1388=DIRECTION('center_axis',(0.,1.,0.));
#1389=DIRECTION('ref_axis',(-0.707106781186549,0.,-0.707106781186546));
#1390=DIRECTION('',(0.,1.,0.));
#1391=DIRECTION('',(0.,-1.,0.));
#1392=DIRECTION('center_axis',(0.,-1.,0.));
#1393=DIRECTION('ref_axis',(-0.707106781186549,0.,0.707106781186546));
#1394=DIRECTION('center_axis',(0.,1.,0.));
#1395=DIRECTION('ref_axis',(-0.707106781186549,0.,0.707106781186546));
#1396=DIRECTION('',(0.,1.,0.));
#1397=DIRECTION('',(0.,-1.,0.));
#1398=DIRECTION('center_axis',(-1.,-7.4014868308344E-17,0.));
#1399=DIRECTION('ref_axis',(0.,0.707106781186547,0.707106781186548));
#1400=DIRECTION('center_axis',(1.,0.,0.));
#1401=DIRECTION('ref_axis',(0.,1.,0.));
#1402=DIRECTION('',(1.,7.4014868308344E-17,0.));
#1403=DIRECTION('',(-1.,-7.4014868308344E-17,0.));
#1404=DIRECTION('center_axis',(0.,0.,1.));
#1405=DIRECTION('ref_axis',(1.,0.,0.));
#1406=DIRECTION('center_axis',(0.970142500145332,-0.242535625036331,0.));
#1407=DIRECTION('ref_axis',(0.242535625036331,0.970142500145332,0.));
#1408=DIRECTION('center_axis',(0.,0.,1.));
#1409=DIRECTION('ref_axis',(-0.122183263695704,-0.992507556682903,0.));
#1410=DIRECTION('center_axis',(0.,0.,-1.));
#1411=DIRECTION('ref_axis',(-0.122183263695704,-0.992507556682903,0.));
#1412=DIRECTION('center_axis',(-0.970142500145332,0.242535625036331,0.));
#1413=DIRECTION('ref_axis',(0.171498585142509,0.685994340570036,0.707106781186547));
#1414=DIRECTION('center_axis',(0.970142500145332,-0.242535625036332,0.));
#1415=DIRECTION('ref_axis',(0.242535625036332,0.970142500145332,0.));
#1416=DIRECTION('',(0.970142500145332,-0.242535625036331,0.));
#1417=DIRECTION('',(-0.970142500145332,0.242535625036331,0.));
#1418=DIRECTION('center_axis',(0.,0.,-1.));
#1419=DIRECTION('ref_axis',(-1.,0.,0.));
#1420=DIRECTION('center_axis',(1.,0.,0.));
#1421=DIRECTION('ref_axis',(0.,1.,0.));
#1422=DIRECTION('center_axis',(0.,0.,-1.));
#1423=DIRECTION('ref_axis',(0.122183263695704,0.992507556682903,0.));
#1424=DIRECTION('center_axis',(0.,0.,1.));
#1425=DIRECTION('ref_axis',(0.122183263695704,0.992507556682903,0.));
#1426=DIRECTION('center_axis',(-1.,0.,0.));
#1427=DIRECTION('ref_axis',(0.,0.707106781186548,0.707106781186548));
#1428=DIRECTION('center_axis',(1.,-5.55111512312578E-16,0.));
#1429=DIRECTION('ref_axis',(5.55111512312578E-16,1.,0.));
#1430=DIRECTION('',(1.,0.,0.));
#1431=DIRECTION('',(-1.,0.,0.));
#1432=DIRECTION('center_axis',(0.,0.,-1.));
#1433=DIRECTION('ref_axis',(-1.,0.,0.));
#1434=DIRECTION('center_axis',(0.970142500145332,0.242535625036331,0.));
#1435=DIRECTION('ref_axis',(-0.242535625036332,0.970142500145332,0.));
#1436=DIRECTION('center_axis',(0.,0.,-1.));
#1437=DIRECTION('ref_axis',(-0.122183263695704,0.992507556682903,0.));
#1438=DIRECTION('center_axis',(0.,0.,1.));
#1439=DIRECTION('ref_axis',(-0.122183263695704,0.992507556682903,0.));
#1440=DIRECTION('center_axis',(-0.970142500145332,-0.242535625036331,0.));
#1441=DIRECTION('ref_axis',(-0.171498585142507,0.685994340570035,0.707106781186548));
#1442=DIRECTION('center_axis',(0.970142500145332,0.242535625036331,0.));
#1443=DIRECTION('ref_axis',(-0.242535625036331,0.970142500145332,0.));
#1444=DIRECTION('',(0.970142500145332,0.242535625036331,0.));
#1445=DIRECTION('',(-0.970142500145332,-0.242535625036331,0.));
#1446=DIRECTION('center_axis',(0.,0.,1.));
#1447=DIRECTION('ref_axis',(1.,0.,0.));
#1448=DIRECTION('center_axis',(1.,0.,0.));
#1449=DIRECTION('ref_axis',(0.,1.,0.));
#1450=DIRECTION('center_axis',(0.,0.,1.));
#1451=DIRECTION('ref_axis',(0.122183263695704,-0.992507556682903,0.));
#1452=DIRECTION('center_axis',(0.,0.,-1.));
#1453=DIRECTION('ref_axis',(0.122183263695704,-0.992507556682903,0.));
#1454=DIRECTION('center_axis',(-1.,7.4014868308344E-17,0.));
#1455=DIRECTION('ref_axis',(0.,0.707106781186547,0.707106781186548));
#1456=DIRECTION('',(1.,-7.4014868308344E-17,0.));
#1457=DIRECTION('',(-1.,7.4014868308344E-17,0.));
#1458=DIRECTION('center_axis',(0.,1.,0.));
#1459=DIRECTION('ref_axis',(0.707106781186549,0.,0.707106781186546));
#1460=DIRECTION('center_axis',(0.,1.,0.));
#1461=DIRECTION('ref_axis',(0.707106781186549,0.,0.707106781186546));
#1462=DIRECTION('',(0.,1.,0.));
#1463=DIRECTION('',(0.,-1.,0.));
#1464=DIRECTION('center_axis',(0.,0.,1.));
#1465=DIRECTION('ref_axis',(-0.122183263695703,-0.992507556682903,0.));
#1466=DIRECTION('',(0.,0.,1.));
#1467=DIRECTION('',(0.,0.,-1.));
#1468=DIRECTION('center_axis',(0.242535625036331,0.970142500145332,0.));
#1469=DIRECTION('ref_axis',(-0.970142500145332,0.242535625036331,0.));
#1470=DIRECTION('',(0.,0.,-1.));
#1471=DIRECTION('center_axis',(0.,0.,-1.));
#1472=DIRECTION('ref_axis',(0.122183263695704,0.992507556682903,0.));
#1473=DIRECTION('',(0.,0.,1.));
#1474=DIRECTION('center_axis',(0.,1.,0.));
#1475=DIRECTION('ref_axis',(-1.,0.,0.));
#1476=DIRECTION('',(0.,0.,-1.));
#1477=DIRECTION('center_axis',(0.,0.,1.));
#1478=DIRECTION('ref_axis',(-0.122183263695704,0.992507556682903,0.));
#1479=DIRECTION('',(0.,0.,1.));
#1480=DIRECTION('center_axis',(-0.242535625036331,0.970142500145332,0.));
#1481=DIRECTION('ref_axis',(-0.970142500145332,-0.242535625036331,0.));
#1482=DIRECTION('',(0.,0.,-1.));
#1483=DIRECTION('center_axis',(0.,0.,1.));
#1484=DIRECTION('ref_axis',(0.122183263695704,-0.992507556682903,0.));
#1485=DIRECTION('',(0.,0.,1.));
#1486=DIRECTION('center_axis',(7.4014868308344E-17,1.,0.));
#1487=DIRECTION('ref_axis',(-1.,7.4014868308344E-17,0.));
#1488=DIRECTION('',(0.866025403784438,-6.40987562127857E-17,0.5));
#1489=DIRECTION('',(-6.74723749608268E-16,4.99395894717681E-32,1.));
#1490=DIRECTION('',(-0.866025403784439,6.40987562127857E-17,0.499999999999999));
#1491=DIRECTION('',(-0.866025403784438,6.40987562127857E-17,-0.500000000000001));
#1492=DIRECTION('',(0.,0.,-1.));
#1493=DIRECTION('',(0.866025403784438,-6.40987562127857E-17,-0.5));
#1494=DIRECTION('center_axis',(0.,0.,1.));
#1495=DIRECTION('ref_axis',(1.,0.,0.));
#1496=DIRECTION('',(-1.,0.,0.));
#1497=DIRECTION('center_axis',(0.,0.,-1.));
#1498=DIRECTION('ref_axis',(1.,0.,0.));
#1499=DIRECTION('',(1.,6.6718105368482E-16,0.));
#1500=DIRECTION('center_axis',(0.,0.,-1.));
#1501=DIRECTION('ref_axis',(-0.547608484285884,0.836734693877406,0.));
#1502=DIRECTION('',(-1.,0.,0.));
#1503=DIRECTION('center_axis',(1.,0.,0.));
#1504=DIRECTION('ref_axis',(0.,1.,0.));
#1505=DIRECTION('',(0.,0.,1.));
#1506=DIRECTION('center_axis',(0.,-1.,0.));
#1507=DIRECTION('ref_axis',(1.,0.,0.));
#1508=DIRECTION('',(1.,0.,0.));
#1509=DIRECTION('',(0.,0.,-1.));
#1510=DIRECTION('center_axis',(0.,1.,0.));
#1511=DIRECTION('ref_axis',(1.,0.,0.));
#1512=DIRECTION('center_axis',(0.,0.,1.));
#1513=DIRECTION('ref_axis',(1.,0.,0.));
#1514=DIRECTION('',(1.,0.,0.));
#1515=DIRECTION('center_axis',(0.,0.,1.));
#1516=DIRECTION('ref_axis',(-0.547608484285884,0.836734693877406,0.));
#1517=DIRECTION('',(-1.,-6.6718105368482E-16,0.));
#1518=DIRECTION('center_axis',(0.,0.,1.));
#1519=DIRECTION('ref_axis',(1.,0.,0.));
#1520=DIRECTION('center_axis',(0.,0.,-1.));
#1521=DIRECTION('ref_axis',(-0.547608484285884,0.836734693877406,0.));
#1522=DIRECTION('center_axis',(0.,0.,1.));
#1523=DIRECTION('ref_axis',(-0.547608484285884,0.836734693877406,0.));
#1524=DIRECTION('center_axis',(4.71768247339722E-16,-0.707106781186548,
-0.707106781186547));
#1525=DIRECTION('ref_axis',(-1.,0.,-6.67181053684821E-16));
#1526=DIRECTION('',(-1.,-6.6718105368482E-16,0.));
#1527=DIRECTION('center_axis',(0.,0.,-1.));
#1528=DIRECTION('ref_axis',(1.,0.,0.));
#1529=DIRECTION('center_axis',(0.,0.,1.));
#1530=DIRECTION('ref_axis',(1.,0.,0.));
#1531=DIRECTION('center_axis',(0.,0.,1.));
#1532=DIRECTION('ref_axis',(0.547608484285884,-0.836734693877406,0.));
#1533=DIRECTION('',(0.,0.,1.));
#1534=DIRECTION('center_axis',(0.,0.,-1.));
#1535=DIRECTION('ref_axis',(-0.547608484285884,0.836734693877406,0.));
#1536=DIRECTION('',(0.,0.,1.));
#1537=DIRECTION('center_axis',(6.6718105368482E-16,-1.,0.));
#1538=DIRECTION('ref_axis',(1.,6.6718105368482E-16,0.));
#1539=DIRECTION('',(0.,0.,1.));
#1540=DIRECTION('',(1.,6.6718105368482E-16,0.));
#1541=DIRECTION('center_axis',(0.,0.,1.));
#1542=DIRECTION('ref_axis',(-1.,0.,0.));
#1543=DIRECTION('center_axis',(0.,0.,-1.));
#1544=DIRECTION('ref_axis',(1.,0.,0.));
#1545=DIRECTION('center_axis',(0.,0.,1.));
#1546=DIRECTION('ref_axis',(1.,0.,0.));
#1547=DIRECTION('center_axis',(4.71768247339722E-16,-0.707106781186548,
0.707106781186547));
#1548=DIRECTION('ref_axis',(1.,0.,-6.67181053684821E-16));
#1549=DIRECTION('center_axis',(0.,0.,1.));
#1550=DIRECTION('ref_axis',(-0.547608484285884,0.836734693877406,0.));
#1551=DIRECTION('center_axis',(0.,1.,0.));
#1552=DIRECTION('ref_axis',(1.,0.,0.));
#1553=DIRECTION('',(0.,1.,0.));
#1554=DIRECTION('center_axis',(7.4014868308344E-17,-1.,0.));
#1555=DIRECTION('ref_axis',(1.,7.40148683083441E-17,0.));
#1556=DIRECTION('center_axis',(0.5,0.,0.866025403784438));
#1557=DIRECTION('ref_axis',(-0.866025403784438,-6.40987562127857E-17,0.5));
#1558=DIRECTION('',(0.866025403784438,6.40987562127857E-17,-0.5));
#1559=DIRECTION('',(0.,-1.,0.));
#1560=DIRECTION('',(-0.866025403784438,-6.40987562127857E-17,0.5));
#1561=DIRECTION('',(0.,-1.,0.));
#1562=DIRECTION('center_axis',(-0.5,0.,0.866025403784439));
#1563=DIRECTION('ref_axis',(-0.866025403784438,-6.40987562127857E-17,-0.5));
#1564=DIRECTION('',(0.866025403784438,6.40987562127857E-17,0.5));
#1565=DIRECTION('',(-0.866025403784438,-6.40987562127857E-17,-0.5));
#1566=DIRECTION('',(0.,-1.,0.));
#1567=DIRECTION('center_axis',(-1.,0.,0.));
#1568=DIRECTION('ref_axis',(0.,0.,-1.));
#1569=DIRECTION('',(0.,0.,1.));
#1570=DIRECTION('',(0.,0.,-1.));
#1571=DIRECTION('',(0.,-1.,0.));
#1572=DIRECTION('center_axis',(-0.500000000000001,0.,-0.866025403784438));
#1573=DIRECTION('ref_axis',(0.866025403784438,6.40987562127857E-17,-0.500000000000001));
#1574=DIRECTION('',(-0.866025403784438,-6.40987562127857E-17,0.500000000000001));
#1575=DIRECTION('',(0.866025403784438,6.40987562127857E-17,-0.500000000000001));
#1576=DIRECTION('',(0.,-1.,0.));
#1577=DIRECTION('center_axis',(0.5,0.,-0.866025403784439));
#1578=DIRECTION('ref_axis',(0.866025403784439,6.40987562127857E-17,0.499999999999999));
#1579=DIRECTION('',(-0.866025403784439,-6.40987562127857E-17,-0.499999999999999));
#1580=DIRECTION('',(0.866025403784439,6.40987562127857E-17,0.499999999999999));
#1581=DIRECTION('',(0.,-1.,0.));
#1582=DIRECTION('center_axis',(1.,0.,-6.74723749608268E-16));
#1583=DIRECTION('ref_axis',(6.74723749608268E-16,4.99395894717681E-32,1.));
#1584=DIRECTION('',(-6.74723749608268E-16,-4.99395894717681E-32,-1.));
#1585=DIRECTION('',(6.74723749608268E-16,4.99395894717681E-32,1.));
#1586=DIRECTION('center_axis',(7.4014868308344E-17,-1.,0.));
#1587=DIRECTION('ref_axis',(0.,0.,1.));
#1588=DIRECTION('center_axis',(-1.05735526154777E-16,-1.,0.));
#1589=DIRECTION('ref_axis',(1.,-1.05735526154777E-16,0.));
#1590=DIRECTION('center_axis',(7.4014868308344E-17,1.,0.));
#1591=DIRECTION('ref_axis',(-1.,7.40148683083441E-17,0.));
#1592=DIRECTION('',(-1.05735526154777E-16,-1.,0.));
#1593=DIRECTION('center_axis',(0.,1.,0.));
#1594=DIRECTION('ref_axis',(1.,-1.05735526154777E-16,0.));
#1595=DIRECTION('center_axis',(0.5,0.,-0.866025403784438));
#1596=DIRECTION('ref_axis',(0.866025403784438,-6.40987562127857E-17,0.5));
#1597=DIRECTION('',(0.,-1.,0.));
#1598=DIRECTION('',(0.866025403784438,-6.40987562127857E-17,0.5));
#1599=DIRECTION('',(0.,-1.,0.));
#1600=DIRECTION('center_axis',(-0.5,0.,-0.866025403784439));
#1601=DIRECTION('ref_axis',(0.866025403784438,-6.40987562127857E-17,-0.5));
#1602=DIRECTION('',(0.,-1.,0.));
#1603=DIRECTION('',(0.866025403784438,-6.40987562127857E-17,-0.5));
#1604=DIRECTION('center_axis',(-1.,0.,0.));
#1605=DIRECTION('ref_axis',(0.,0.,-1.));
#1606=DIRECTION('',(0.,-1.,0.));
#1607=DIRECTION('',(0.,0.,-1.));
#1608=DIRECTION('center_axis',(-0.500000000000001,0.,0.866025403784438));
#1609=DIRECTION('ref_axis',(-0.866025403784438,6.40987562127857E-17,-0.500000000000001));
#1610=DIRECTION('',(0.,-1.,0.));
#1611=DIRECTION('',(-0.866025403784438,6.40987562127857E-17,-0.500000000000001));
#1612=DIRECTION('center_axis',(0.5,0.,0.866025403784439));
#1613=DIRECTION('ref_axis',(-0.866025403784439,6.40987562127857E-17,0.499999999999999));
#1614=DIRECTION('',(0.,-1.,0.));
#1615=DIRECTION('',(-0.866025403784439,6.40987562127857E-17,0.499999999999999));
#1616=DIRECTION('center_axis',(1.,0.,6.74723749608268E-16));
#1617=DIRECTION('ref_axis',(-6.74723749608268E-16,4.99395894717681E-32,
1.));
#1618=DIRECTION('',(-6.74723749608268E-16,4.99395894717681E-32,1.));
#1619=DIRECTION('center_axis',(7.4014868308344E-17,1.,0.));
#1620=DIRECTION('ref_axis',(0.,0.,1.));
#1621=DIRECTION('center_axis',(-7.4014868308344E-17,1.,0.));
#1622=DIRECTION('ref_axis',(-1.,-7.4014868308344E-17,0.));
#1623=DIRECTION('center_axis',(0.,-1.,0.));
#1624=DIRECTION('ref_axis',(1.,0.,0.));
#1625=DIRECTION('',(0.,0.,1.));
#1626=DIRECTION('center_axis',(-1.,0.,0.));
#1627=DIRECTION('ref_axis',(0.,-1.,0.));
#1628=CARTESIAN_POINT('',(0.,0.,0.));
#1629=CARTESIAN_POINT('Origin',(13.,1.5,4.25));
#1630=CARTESIAN_POINT('',(13.5,1.5,4.25));
#1631=CARTESIAN_POINT('',(13.,1.5,4.75));
#1632=CARTESIAN_POINT('Origin',(13.,1.5,4.25));
#1633=CARTESIAN_POINT('',(13.,2.,4.25));
#1634=CARTESIAN_POINT('Origin',(13.,1.5,4.25));
#1635=CARTESIAN_POINT('Origin',(13.,1.5,4.25));
#1636=CARTESIAN_POINT('Origin',(-13.,1.5,4.25));
#1637=CARTESIAN_POINT('',(-13.,2.,4.25));
#1638=CARTESIAN_POINT('',(-13.,1.5,4.75));
#1639=CARTESIAN_POINT('Origin',(-13.,1.5,4.25));
#1640=CARTESIAN_POINT('',(-13.5,1.5,4.25));
#1641=CARTESIAN_POINT('Origin',(-13.,1.5,4.25));
#1642=CARTESIAN_POINT('Origin',(-13.,1.5,4.25));
#1643=CARTESIAN_POINT('Origin',(13.,1.5,-4.25));
#1644=CARTESIAN_POINT('',(13.,2.,-4.25));
#1645=CARTESIAN_POINT('',(13.,1.5,-4.75));
#1646=CARTESIAN_POINT('Origin',(13.,1.5,-4.25));
#1647=CARTESIAN_POINT('',(13.5,1.5,-4.25));
#1648=CARTESIAN_POINT('Origin',(13.,1.5,-4.25));
#1649=CARTESIAN_POINT('Origin',(13.,1.5,-4.25));
#1650=CARTESIAN_POINT('Origin',(13.,1.5,0.));
#1651=CARTESIAN_POINT('',(13.5,1.5,0.));
#1652=CARTESIAN_POINT('',(13.,2.,0.));
#1653=CARTESIAN_POINT('Origin',(13.,-3.,-4.25));
#1654=CARTESIAN_POINT('',(13.5,-4.,-4.25));
#1655=CARTESIAN_POINT('',(13.,-4.,-4.75));
#1656=CARTESIAN_POINT('Origin',(13.,-4.,-4.25));
#1657=CARTESIAN_POINT('',(13.,-3.,-4.75));
#1658=CARTESIAN_POINT('',(13.5,-3.,-4.25));
#1659=CARTESIAN_POINT('Origin',(-13.,1.5,-4.25));
#1660=CARTESIAN_POINT('',(-13.5,1.5,-4.25));
#1661=CARTESIAN_POINT('',(-13.,1.5,-4.75));
#1662=CARTESIAN_POINT('Origin',(-13.,1.5,-4.25));
#1663=CARTESIAN_POINT('',(-13.,2.,-4.25));
#1664=CARTESIAN_POINT('Origin',(-13.,1.5,-4.25));
#1665=CARTESIAN_POINT('Origin',(-13.,1.5,-4.25));
#1666=CARTESIAN_POINT('Origin',(-13.,1.5,0.));
#1667=CARTESIAN_POINT('',(-13.,2.,0.));
#1668=CARTESIAN_POINT('',(-13.5,1.5,0.));
#1669=CARTESIAN_POINT('Origin',(-3.00000000000001,1.5,-4.25));
#1670=CARTESIAN_POINT('',(-6.24621125123535,2.,-4.25));
#1671=CARTESIAN_POINT('',(-6.24621125123535,1.5,-4.75));
#1672=CARTESIAN_POINT('Origin',(-6.24621125123535,1.5,-4.25));
#1673=CARTESIAN_POINT('',(-3.00000000000001,1.5,-4.75));
#1674=CARTESIAN_POINT('',(-3.00000000000001,2.,-4.25));
#1675=CARTESIAN_POINT('Origin',(-6.24621125123535,4.,-4.25));
#1676=CARTESIAN_POINT('',(-5.76114000116269,2.05971499970933,-4.25));
#1677=CARTESIAN_POINT('',(-5.63987218864452,1.57464374963667,-4.75));
#1678=CARTESIAN_POINT('Origin',(-5.63987218864452,1.57464374963667,-4.25));
#1679=CARTESIAN_POINT('Origin',(-6.24621125123535,4.,-4.75));
#1680=CARTESIAN_POINT('Origin',(-6.24621125123535,4.,-4.25));
#1681=CARTESIAN_POINT('Origin',(-1.40814395218771,2.63257580875086,-4.25));
#1682=CARTESIAN_POINT('',(-2.23885999883734,2.94028500029066,-4.25));
#1683=CARTESIAN_POINT('',(-2.11759218631918,2.455213750218,-4.75));
#1684=CARTESIAN_POINT('Origin',(-2.11759218631918,2.455213750218,-4.25));
#1685=CARTESIAN_POINT('',(-1.40814395218771,2.63257580875086,-4.75));
#1686=CARTESIAN_POINT('',(-1.52941176470588,3.11764705882353,-4.25));
#1687=CARTESIAN_POINT('Origin',(-1.75378874876468,1.,-4.25));
#1688=CARTESIAN_POINT('',(-1.75378874876468,3.,-4.25));
#1689=CARTESIAN_POINT('',(-1.75378874876468,2.5,-4.75));
#1690=CARTESIAN_POINT('Origin',(-1.75378874876468,2.5,-4.25));
#1691=CARTESIAN_POINT('Origin',(-1.75378874876468,1.,-4.75));
#1692=CARTESIAN_POINT('Origin',(-1.75378874876468,1.,-4.25));
#1693=CARTESIAN_POINT('Origin',(1.,2.5,-4.25));
#1694=CARTESIAN_POINT('',(1.75378874876468,3.,-4.25));
#1695=CARTESIAN_POINT('',(1.75378874876468,2.5,-4.75));
#1696=CARTESIAN_POINT('Origin',(1.75378874876468,2.5,-4.25));
#1697=CARTESIAN_POINT('',(1.,2.5,-4.75));
#1698=CARTESIAN_POINT('',(1.,3.,-4.25));
#1699=CARTESIAN_POINT('Origin',(1.75378874876468,1.,-4.25));
#1700=CARTESIAN_POINT('',(2.23885999883734,2.94028500029066,-4.25));
#1701=CARTESIAN_POINT('',(2.11759218631918,2.455213750218,-4.75));
#1702=CARTESIAN_POINT('Origin',(2.11759218631918,2.455213750218,-4.25));
#1703=CARTESIAN_POINT('Origin',(1.75378874876468,1.,-4.75));
#1704=CARTESIAN_POINT('Origin',(1.75378874876468,1.,-4.25));
#1705=CARTESIAN_POINT('Origin',(3.40814395218773,2.13257580875086,-4.25));
#1706=CARTESIAN_POINT('',(5.76114000116268,2.05971499970934,-4.25));
#1707=CARTESIAN_POINT('',(5.63987218864452,1.57464374963667,-4.75));
#1708=CARTESIAN_POINT('Origin',(5.63987218864452,1.57464374963667,-4.25));
#1709=CARTESIAN_POINT('',(3.40814395218773,2.13257580875086,-4.75));
#1710=CARTESIAN_POINT('',(3.52941176470589,2.61764705882353,-4.25));
#1711=CARTESIAN_POINT('Origin',(6.24621125123535,4.,-4.25));
#1712=CARTESIAN_POINT('',(6.24621125123535,2.,-4.25));
#1713=CARTESIAN_POINT('',(6.24621125123535,1.5,-4.75));
#1714=CARTESIAN_POINT('Origin',(6.24621125123535,1.5,-4.25));
#1715=CARTESIAN_POINT('Origin',(6.24621125123535,4.,-4.75));
#1716=CARTESIAN_POINT('Origin',(6.24621125123535,4.,-4.25));
#1717=CARTESIAN_POINT('Origin',(6.75,1.5,-4.25));
#1718=CARTESIAN_POINT('',(6.75,1.5,-4.75));
#1719=CARTESIAN_POINT('',(6.75,2.,-4.25));
#1720=CARTESIAN_POINT('Origin',(-13.,0.5,-4.25));
#1721=CARTESIAN_POINT('',(-13.,-4.,-4.75));
#1722=CARTESIAN_POINT('',(-13.5,-4.,-4.25));
#1723=CARTESIAN_POINT('Origin',(-13.,-4.,-4.25));
#1724=CARTESIAN_POINT('',(-13.5,0.5,-4.25));
#1725=CARTESIAN_POINT('',(-13.,0.5,-4.75));
#1726=CARTESIAN_POINT('Origin',(-13.,0.5,4.25));
#1727=CARTESIAN_POINT('',(-13.5,-4.,4.25));
#1728=CARTESIAN_POINT('',(-13.,-4.,4.75));
#1729=CARTESIAN_POINT('Origin',(-13.,-4.,4.25));
#1730=CARTESIAN_POINT('',(-13.,0.5,4.75));
#1731=CARTESIAN_POINT('',(-13.5,0.5,4.25));
#1732=CARTESIAN_POINT('Origin',(6.75,1.5,4.25));
#1733=CARTESIAN_POINT('',(6.24621125123535,2.,4.25));
#1734=CARTESIAN_POINT('',(6.24621125123535,1.5,4.75));
#1735=CARTESIAN_POINT('Origin',(6.24621125123535,1.5,4.25));
#1736=CARTESIAN_POINT('',(6.75,1.5,4.75));
#1737=CARTESIAN_POINT('',(6.75,2.,4.25));
#1738=CARTESIAN_POINT('Origin',(6.24621125123535,4.,4.25));
#1739=CARTESIAN_POINT('',(5.76114000116268,2.05971499970934,4.25));
#1740=CARTESIAN_POINT('',(5.63987218864452,1.57464374963667,4.75));
#1741=CARTESIAN_POINT('Origin',(5.63987218864452,1.57464374963667,4.25));
#1742=CARTESIAN_POINT('Origin',(6.24621125123535,4.,4.75));
#1743=CARTESIAN_POINT('Origin',(6.24621125123535,4.,4.25));
#1744=CARTESIAN_POINT('Origin',(3.40814395218773,2.13257580875086,4.25));
#1745=CARTESIAN_POINT('',(2.23885999883734,2.94028500029066,4.25));
#1746=CARTESIAN_POINT('',(2.11759218631918,2.455213750218,4.75));
#1747=CARTESIAN_POINT('Origin',(2.11759218631918,2.455213750218,4.25));
#1748=CARTESIAN_POINT('',(3.40814395218773,2.13257580875086,4.75));
#1749=CARTESIAN_POINT('',(3.52941176470589,2.61764705882353,4.25));
#1750=CARTESIAN_POINT('Origin',(1.75378874876468,1.,4.25));
#1751=CARTESIAN_POINT('',(1.75378874876468,3.,4.25));
#1752=CARTESIAN_POINT('',(1.75378874876468,2.5,4.75));
#1753=CARTESIAN_POINT('Origin',(1.75378874876468,2.5,4.25));
#1754=CARTESIAN_POINT('Origin',(1.75378874876468,1.,4.75));
#1755=CARTESIAN_POINT('Origin',(1.75378874876468,1.,4.25));
#1756=CARTESIAN_POINT('Origin',(1.,2.5,4.25));
#1757=CARTESIAN_POINT('',(-1.75378874876468,3.,4.25));
#1758=CARTESIAN_POINT('',(-1.75378874876468,2.5,4.75));
#1759=CARTESIAN_POINT('Origin',(-1.75378874876468,2.5,4.25));
#1760=CARTESIAN_POINT('',(1.,2.5,4.75));
#1761=CARTESIAN_POINT('',(1.,3.,4.25));
#1762=CARTESIAN_POINT('Origin',(-1.75378874876468,1.,4.25));
#1763=CARTESIAN_POINT('',(-2.23885999883734,2.94028500029066,4.25));
#1764=CARTESIAN_POINT('',(-2.11759218631918,2.455213750218,4.75));
#1765=CARTESIAN_POINT('Origin',(-2.11759218631918,2.455213750218,4.25));
#1766=CARTESIAN_POINT('Origin',(-1.75378874876468,1.,4.75));
#1767=CARTESIAN_POINT('Origin',(-1.75378874876468,1.,4.25));
#1768=CARTESIAN_POINT('Origin',(-1.40814395218771,2.63257580875086,4.25));
#1769=CARTESIAN_POINT('',(-5.76114000116269,2.05971499970933,4.25));
#1770=CARTESIAN_POINT('',(-5.63987218864452,1.57464374963667,4.75));
#1771=CARTESIAN_POINT('Origin',(-5.63987218864452,1.57464374963667,4.25));
#1772=CARTESIAN_POINT('',(-1.40814395218771,2.63257580875086,4.75));
#1773=CARTESIAN_POINT('',(-1.52941176470588,3.11764705882353,4.25));
#1774=CARTESIAN_POINT('Origin',(-6.24621125123535,4.,4.25));
#1775=CARTESIAN_POINT('',(-6.24621125123535,2.,4.25));
#1776=CARTESIAN_POINT('',(-6.24621125123535,1.5,4.75));
#1777=CARTESIAN_POINT('Origin',(-6.24621125123535,1.5,4.25));
#1778=CARTESIAN_POINT('Origin',(-6.24621125123535,4.,4.75));
#1779=CARTESIAN_POINT('Origin',(-6.24621125123535,4.,4.25));
#1780=CARTESIAN_POINT('Origin',(-3.00000000000001,1.5,4.25));
#1781=CARTESIAN_POINT('',(-3.00000000000001,1.5,4.75));
#1782=CARTESIAN_POINT('',(-3.00000000000001,2.,4.25));
#1783=CARTESIAN_POINT('Origin',(13.,-3.,4.25));
#1784=CARTESIAN_POINT('',(13.,-4.,4.75));
#1785=CARTESIAN_POINT('',(13.5,-4.,4.25));
#1786=CARTESIAN_POINT('Origin',(13.,-4.,4.25));
#1787=CARTESIAN_POINT('',(13.5,-3.,4.25));
#1788=CARTESIAN_POINT('',(13.,-3.,4.75));
#1789=CARTESIAN_POINT('Origin',(6.24621125123535,4.,0.));
#1790=CARTESIAN_POINT('',(5.76114000116268,2.05971499970934,0.));
#1791=CARTESIAN_POINT('',(6.24621125123535,2.,0.));
#1792=CARTESIAN_POINT('Origin',(6.00000000000003,2.,0.));
#1793=CARTESIAN_POINT('',(2.23885999883734,2.94028500029066,0.));
#1794=CARTESIAN_POINT('Origin',(1.75378874876468,1.,0.));
#1795=CARTESIAN_POINT('',(1.75378874876468,3.,0.));
#1796=CARTESIAN_POINT('Origin',(2.,3.,0.));
#1797=CARTESIAN_POINT('',(-1.75378874876468,3.,0.));
#1798=CARTESIAN_POINT('Origin',(-1.75378874876468,1.,0.));
#1799=CARTESIAN_POINT('',(-2.23885999883734,2.94028500029066,0.));
#1800=CARTESIAN_POINT('Origin',(-2.,3.,0.));
#1801=CARTESIAN_POINT('',(-5.76114000116269,2.05971499970933,0.));
#1802=CARTESIAN_POINT('Origin',(-6.24621125123535,4.,0.));
#1803=CARTESIAN_POINT('',(-6.24621125123535,2.,0.));
#1804=CARTESIAN_POINT('Origin',(-6.00000000000003,2.,0.));
#1805=CARTESIAN_POINT('',(-9.5,2.,-3.29089653438087));
#1806=CARTESIAN_POINT('',(-6.65,2.,-1.64544826719043));
#1807=CARTESIAN_POINT('',(-7.47500000000001,2.,-2.12176223927188));
#1808=CARTESIAN_POINT('',(-6.65,2.,1.64544826719044));
#1809=CARTESIAN_POINT('',(-6.65,2.,-0.822724133595216));
#1810=CARTESIAN_POINT('',(-9.5,2.,3.29089653438087));
#1811=CARTESIAN_POINT('',(-6.05000000000001,2.,1.29903810567667));
#1812=CARTESIAN_POINT('',(-12.35,2.,1.64544826719043));
#1813=CARTESIAN_POINT('',(-8.90000000000001,2.,3.63730669589464));
#1814=CARTESIAN_POINT('',(-12.35,2.,-1.64544826719043));
#1815=CARTESIAN_POINT('',(-12.35,2.,0.822724133595216));
#1816=CARTESIAN_POINT('',(-10.325,2.,-2.81458256229942));
#1817=CARTESIAN_POINT('Origin',(0.,-1.,-4.75));
#1818=CARTESIAN_POINT('',(6.29608012973152,-4.,-4.75));
#1819=CARTESIAN_POINT('',(-13.5,-4.,-4.75));
#1820=CARTESIAN_POINT('',(3.42782730020052,0.375000000000002,-4.75));
#1821=CARTESIAN_POINT('Origin',(0.,-5.,-4.75));
#1822=CARTESIAN_POINT('',(-3.42782730020052,0.374999999999998,-4.75));
#1823=CARTESIAN_POINT('',(-1.67705098312581,0.375,-4.75));
#1824=CARTESIAN_POINT('',(-6.29608012973151,-4.,-4.75));
#1825=CARTESIAN_POINT('Origin',(0.,-5.,-4.75));
#1826=CARTESIAN_POINT('',(-13.5,-4.,-4.75));
#1827=CARTESIAN_POINT('Origin',(13.5,-5.,0.));
#1828=CARTESIAN_POINT('',(13.5,-4.,0.));
#1829=CARTESIAN_POINT('Origin',(6.125,-4.,0.));
#1830=CARTESIAN_POINT('',(6.29608012973152,-4.,4.75));
#1831=CARTESIAN_POINT('',(-13.5,-4.,4.75));
#1832=CARTESIAN_POINT('',(6.04281598263591,-4.,4.5));
#1833=CARTESIAN_POINT('Ctrl Pts',(6.29608012973151,-4.,4.75));
#1834=CARTESIAN_POINT('Ctrl Pts',(6.16691541471275,-4.,4.62243429087184));
#1835=CARTESIAN_POINT('Ctrl Pts',(6.04281598263591,-4.,4.5));
#1836=CARTESIAN_POINT('',(6.04281598263591,-4.,-4.5));
#1837=CARTESIAN_POINT('',(6.04281598263591,-4.,0.));
#1838=CARTESIAN_POINT('Ctrl Pts',(6.04281598263591,-4.,-4.50000000000001));
#1839=CARTESIAN_POINT('Ctrl Pts',(6.14922100841805,-4.,-4.60497730455986));
#1840=CARTESIAN_POINT('Ctrl Pts',(6.2776570181786,-4.,-4.73180495896845));
#1841=CARTESIAN_POINT('Ctrl Pts',(6.29608012973152,-4.,-4.75000000000001));
#1842=CARTESIAN_POINT('',(7.9,-4.,1.95943487863577E-16));
#1843=CARTESIAN_POINT('Origin',(9.5,-4.,0.));
#1844=CARTESIAN_POINT('Origin',(0.,-1.,4.75));
#1845=CARTESIAN_POINT('',(-6.29608012973151,-4.,4.75));
#1846=CARTESIAN_POINT('',(-13.5,-4.,4.75));
#1847=CARTESIAN_POINT('',(-3.42782730020052,0.374999999999998,4.75));
#1848=CARTESIAN_POINT('Origin',(0.,-5.,4.75));
#1849=CARTESIAN_POINT('',(3.42782730020052,0.375000000000003,4.75));
#1850=CARTESIAN_POINT('',(-1.67705098312581,0.375,4.75));
#1851=CARTESIAN_POINT('Origin',(0.,-5.,4.75));
#1852=CARTESIAN_POINT('Origin',(0.,-5.,-4.625));
#1853=CARTESIAN_POINT('',(-3.35410196625162,0.124999999999998,-4.5));
#1854=CARTESIAN_POINT('',(-6.04281598263591,-4.,-4.5));
#1855=CARTESIAN_POINT('Origin',(0.,-5.,-4.5));
#1856=CARTESIAN_POINT('Ctrl Pts',(-6.29608012973152,-4.,-4.75));
#1857=CARTESIAN_POINT('Ctrl Pts',(-6.16691541471276,-4.,-4.62243429087184));
#1858=CARTESIAN_POINT('Ctrl Pts',(-6.04281598263591,-4.,-4.5));
#1859=CARTESIAN_POINT('Ctrl Pts',(-3.42782730020053,0.374999999999999,-4.75));
#1860=CARTESIAN_POINT('Ctrl Pts',(-3.4035088811931,0.291640659428648,-4.66664065942865));
#1861=CARTESIAN_POINT('Ctrl Pts',(-3.37893242919833,0.208283904592926,-4.5832839045939));
#1862=CARTESIAN_POINT('Ctrl Pts',(-3.35410196625133,0.124999999999557,-4.50000000000053));
#1863=CARTESIAN_POINT('Origin',(-1.67705098312581,0.25,-4.625));
#1864=CARTESIAN_POINT('',(3.35410196625162,0.125000000000003,-4.5));
#1865=CARTESIAN_POINT('',(-1.67705098312581,0.125,-4.5));
#1866=CARTESIAN_POINT('Ctrl Pts',(3.42782730020052,0.375000000000002,-4.75));
#1867=CARTESIAN_POINT('Ctrl Pts',(3.40350888122132,0.291640659525396,-4.66664065952539));
#1868=CARTESIAN_POINT('Ctrl Pts',(3.37893242921225,0.208283904639108,-4.5832839046391));
#1869=CARTESIAN_POINT('Ctrl Pts',(3.35410196625162,0.125000000000003,-4.5));
#1870=CARTESIAN_POINT('Origin',(0.,-5.,-4.625));
#1871=CARTESIAN_POINT('Origin',(0.,-5.,-4.5));
#1872=CARTESIAN_POINT('Origin',(0.,-5.,0.));
#1873=CARTESIAN_POINT('',(-3.35410196625162,0.124999999999998,4.5));
#1874=CARTESIAN_POINT('',(-3.35410196625162,0.124999999999998,0.));
#1875=CARTESIAN_POINT('',(-6.04281598263591,-4.,4.5));
#1876=CARTESIAN_POINT('Origin',(0.,-5.,4.5));
#1877=CARTESIAN_POINT('',(-6.04281598263591,-4.,0.));
#1878=CARTESIAN_POINT('Origin',(-3.35410196625162,0.124999999999998,0.));
#1879=CARTESIAN_POINT('',(3.35410196625162,0.125000000000003,4.5));
#1880=CARTESIAN_POINT('',(3.35410196625162,0.125000000000003,0.));
#1881=CARTESIAN_POINT('',(-1.67705098312581,0.125,4.5));
#1882=CARTESIAN_POINT('Origin',(0.,-5.,0.));
#1883=CARTESIAN_POINT('Origin',(0.,-5.,4.5));
#1884=CARTESIAN_POINT('Origin',(0.,-5.,4.625));
#1885=CARTESIAN_POINT('Ctrl Pts',(3.42782730020052,0.375000000000001,4.75));
#1886=CARTESIAN_POINT('Ctrl Pts',(3.40350888119338,0.291640659429608,4.66664065942961));
#1887=CARTESIAN_POINT('Ctrl Pts',(3.37893242919846,0.208283904593376,4.58328390459435));
#1888=CARTESIAN_POINT('Ctrl Pts',(3.35410196625133,0.124999999999559,4.50000000000053));
#1889=CARTESIAN_POINT('Origin',(-1.67705098312581,0.25,4.625));
#1890=CARTESIAN_POINT('Ctrl Pts',(-3.42782730020052,0.374999999999999,4.75));
#1891=CARTESIAN_POINT('Ctrl Pts',(-3.40350888122098,0.291640659524216,4.66664065952422));
#1892=CARTESIAN_POINT('Ctrl Pts',(-3.37893242921209,0.208283904638547,4.58328390463855));
#1893=CARTESIAN_POINT('Ctrl Pts',(-3.35410196625162,0.124999999999998,4.5));
#1894=CARTESIAN_POINT('Origin',(0.,-5.,4.625));
#1895=CARTESIAN_POINT('Ctrl Pts',(-6.04281598263591,-4.,4.5));
#1896=CARTESIAN_POINT('Ctrl Pts',(-6.14922100841804,-4.,4.60497730455984));
#1897=CARTESIAN_POINT('Ctrl Pts',(-6.27765701817859,-4.,4.73180495896843));
#1898=CARTESIAN_POINT('Ctrl Pts',(-6.29608012973151,-4.,4.74999999999999));
#1899=CARTESIAN_POINT('Origin',(9.5,2.,0.));
#1900=CARTESIAN_POINT('',(7.9,-1.,-2.77555756156289E-16));
#1901=CARTESIAN_POINT('',(7.9,2.,1.95943487863577E-16));
#1902=CARTESIAN_POINT('Origin',(9.5,-1.,0.));
#1903=CARTESIAN_POINT('Origin',(9.5,2.,-3.29089653438087));
#1904=CARTESIAN_POINT('',(6.65,2.,-1.64544826719043));
#1905=CARTESIAN_POINT('',(9.5,2.,-3.29089653438087));
#1906=CARTESIAN_POINT('',(10.2875,2.,-3.7455598713677));
#1907=CARTESIAN_POINT('',(6.65,-1.,-1.64544826719043));
#1908=CARTESIAN_POINT('',(6.65,2.,-1.64544826719043));
#1909=CARTESIAN_POINT('',(9.5,-1.,-3.29089653438087));
#1910=CARTESIAN_POINT('',(6.65,-1.,-1.64544826719043));
#1911=CARTESIAN_POINT('',(9.5,2.,-3.29089653438087));
#1912=CARTESIAN_POINT('Origin',(12.35,2.,-1.64544826719043));
#1913=CARTESIAN_POINT('',(12.35,2.,-1.64544826719043));
#1914=CARTESIAN_POINT('',(13.1375,2.,-1.1907849302036));
#1915=CARTESIAN_POINT('',(12.35,-1.,-1.64544826719043));
#1916=CARTESIAN_POINT('',(9.5,-1.,-3.29089653438087));
#1917=CARTESIAN_POINT('',(12.35,2.,-1.64544826719043));
#1918=CARTESIAN_POINT('Origin',(12.35,2.,1.64544826719043));
#1919=CARTESIAN_POINT('',(12.35,2.,1.64544826719043));
#1920=CARTESIAN_POINT('',(12.35,2.,0.822724133595216));
#1921=CARTESIAN_POINT('',(12.35,-1.,1.64544826719043));
#1922=CARTESIAN_POINT('',(12.35,-1.,-1.64544826719043));
#1923=CARTESIAN_POINT('',(12.35,2.,1.64544826719043));
#1924=CARTESIAN_POINT('Origin',(9.5,2.,3.29089653438087));
#1925=CARTESIAN_POINT('',(9.5,2.,3.29089653438087));
#1926=CARTESIAN_POINT('',(11.7125,2.,2.01350906379882));
#1927=CARTESIAN_POINT('',(9.5,-1.,3.29089653438087));
#1928=CARTESIAN_POINT('',(12.35,-1.,1.64544826719043));
#1929=CARTESIAN_POINT('',(9.5,2.,3.29089653438087));
#1930=CARTESIAN_POINT('Origin',(6.65,2.,1.64544826719044));
#1931=CARTESIAN_POINT('',(6.65,2.,1.64544826719044));
#1932=CARTESIAN_POINT('',(8.8625,2.,2.92283573777248));
#1933=CARTESIAN_POINT('',(6.65,-1.,1.64544826719044));
#1934=CARTESIAN_POINT('',(9.5,-1.,3.29089653438087));
#1935=CARTESIAN_POINT('',(6.65,2.,1.64544826719044));
#1936=CARTESIAN_POINT('Origin',(6.65,2.,-1.64544826719043));
#1937=CARTESIAN_POINT('',(6.65,2.,-0.822724133595214));
#1938=CARTESIAN_POINT('',(6.65,-1.,1.64544826719044));
#1939=CARTESIAN_POINT('Origin',(9.5,-1.,0.));
#1940=CARTESIAN_POINT('Origin',(-9.5,2.,0.));
#1941=CARTESIAN_POINT('',(-11.1,-1.,-1.95943487863577E-16));
#1942=CARTESIAN_POINT('Origin',(-9.5,-1.,0.));
#1943=CARTESIAN_POINT('',(-11.1,-4.,1.95943487863577E-16));
#1944=CARTESIAN_POINT('',(-11.1,2.,-1.95943487863577E-16));
#1945=CARTESIAN_POINT('Origin',(-9.5,-4.,0.));
#1946=CARTESIAN_POINT('Origin',(-9.5,2.,-3.29089653438087));
#1947=CARTESIAN_POINT('',(-9.5,-1.,-3.29089653438087));
#1948=CARTESIAN_POINT('',(-9.5,2.,-3.29089653438087));
#1949=CARTESIAN_POINT('',(-6.65,-1.,-1.64544826719043));
#1950=CARTESIAN_POINT('',(-6.65,-1.,-1.64544826719043));
#1951=CARTESIAN_POINT('',(-6.65,2.,-1.64544826719043));
#1952=CARTESIAN_POINT('Origin',(-12.35,2.,-1.64544826719043));
#1953=CARTESIAN_POINT('',(-12.35,-1.,-1.64544826719043));
#1954=CARTESIAN_POINT('',(-12.35,2.,-1.64544826719043));
#1955=CARTESIAN_POINT('',(-9.5,-1.,-3.29089653438087));
#1956=CARTESIAN_POINT('Origin',(-12.35,2.,1.64544826719043));
#1957=CARTESIAN_POINT('',(-12.35,-1.,1.64544826719043));
#1958=CARTESIAN_POINT('',(-12.35,2.,1.64544826719043));
#1959=CARTESIAN_POINT('',(-12.35,-1.,-1.64544826719043));
#1960=CARTESIAN_POINT('Origin',(-9.5,2.,3.29089653438087));
#1961=CARTESIAN_POINT('',(-9.5,-1.,3.29089653438087));
#1962=CARTESIAN_POINT('',(-9.5,2.,3.29089653438087));
#1963=CARTESIAN_POINT('',(-12.35,-1.,1.64544826719043));
#1964=CARTESIAN_POINT('Origin',(-6.65,2.,1.64544826719044));
#1965=CARTESIAN_POINT('',(-6.65,-1.,1.64544826719044));
#1966=CARTESIAN_POINT('',(-6.65,2.,1.64544826719044));
#1967=CARTESIAN_POINT('',(-9.5,-1.,3.29089653438087));
#1968=CARTESIAN_POINT('Origin',(-6.65,2.,-1.64544826719043));
#1969=CARTESIAN_POINT('',(-6.65,-1.,1.64544826719044));
#1970=CARTESIAN_POINT('Origin',(-9.5,-1.,0.));
#1971=CARTESIAN_POINT('Origin',(13.5,2.,0.));
#1972=CARTESIAN_POINT('Origin',(-13.5,-4.,0.));
#1973=CARTESIAN_POINT('',(-13.5,-4.,0.));
#1974=CARTESIAN_POINT('Origin',(-13.5,2.,0.));
#1975=UNCERTAINTY_MEASURE_WITH_UNIT(LENGTH_MEASURE(0.01),#1979,
'DISTANCE_ACCURACY_VALUE',
'Maximum model space distance between geometric entities at asserted c
onnectivities');
#1976=UNCERTAINTY_MEASURE_WITH_UNIT(LENGTH_MEASURE(0.01),#1979,
'DISTANCE_ACCURACY_VALUE',
'Maximum model space distance between geometric entities at asserted c
onnectivities');
#1977=(
GEOMETRIC_REPRESENTATION_CONTEXT(3)
GLOBAL_UNCERTAINTY_ASSIGNED_CONTEXT((#1975))
GLOBAL_UNIT_ASSIGNED_CONTEXT((#1979,#1981,#1982))
REPRESENTATION_CONTEXT('','3D')
);
#1978=(
GEOMETRIC_REPRESENTATION_CONTEXT(3)
GLOBAL_UNCERTAINTY_ASSIGNED_CONTEXT((#1976))
GLOBAL_UNIT_ASSIGNED_CONTEXT((#1979,#1981,#1982))
REPRESENTATION_CONTEXT('','3D')
);
#1979=(
LENGTH_UNIT()
NAMED_UNIT(*)
SI_UNIT(.MILLI.,.METRE.)
);
#1980=(
LENGTH_UNIT()
NAMED_UNIT(*)
SI_UNIT(.CENTI.,.METRE.)
);
#1981=(
NAMED_UNIT(*)
PLANE_ANGLE_UNIT()
SI_UNIT($,.RADIAN.)
);
#1982=(
NAMED_UNIT(*)
SI_UNIT($,.STERADIAN.)
SOLID_ANGLE_UNIT()
);
#1983=SHAPE_DEFINITION_REPRESENTATION(#1984,#1985);
#1984=PRODUCT_DEFINITION_SHAPE('',$,#1987);
#1985=SHAPE_REPRESENTATION('',(#1149),#1977);
#1986=PRODUCT_DEFINITION_CONTEXT('part definition',#1991,'design');
#1987=PRODUCT_DEFINITION('MotorClamp','MotorClamp',#1988,#1986);
#1988=PRODUCT_DEFINITION_FORMATION('',$,#1993);
#1989=PRODUCT_RELATED_PRODUCT_CATEGORY('MotorClamp','MotorClamp',(#1993));
#1990=APPLICATION_PROTOCOL_DEFINITION('international standard',
'automotive_design',2009,#1991);
#1991=APPLICATION_CONTEXT(
'Core Data for Automotive Mechanical Design Process');
#1992=PRODUCT_CONTEXT('part definition',#1991,'mechanical');
#1993=PRODUCT('MotorClamp','MotorClamp',$,(#1992));
#1994=PRESENTATION_STYLE_ASSIGNMENT((#1996));
#1995=PRESENTATION_STYLE_ASSIGNMENT((#1997));
#1996=SURFACE_STYLE_USAGE(.BOTH.,#2002);
#1997=SURFACE_STYLE_USAGE(.BOTH.,#2003);
#1998=SURFACE_STYLE_RENDERING_WITH_PROPERTIES($,#2010,(#2000));
#1999=SURFACE_STYLE_RENDERING_WITH_PROPERTIES($,#2011,(#2001));
#2000=SURFACE_STYLE_TRANSPARENT(0.);
#2001=SURFACE_STYLE_TRANSPARENT(0.);
#2002=SURFACE_SIDE_STYLE('',(#2004,#1998));
#2003=SURFACE_SIDE_STYLE('',(#2005,#1999));
#2004=SURFACE_STYLE_FILL_AREA(#2006);
#2005=SURFACE_STYLE_FILL_AREA(#2007);
#2006=FILL_AREA_STYLE('',(#2008));
#2007=FILL_AREA_STYLE('',(#2009));
#2008=FILL_AREA_STYLE_COLOUR('',#2010);
#2009=FILL_AREA_STYLE_COLOUR('',#2011);
#2010=COLOUR_RGB('',0.749019607843137,0.749019607843137,0.749019607843137);
#2011=COLOUR_RGB('',0.43921568627451,0.43921568627451,0.43921568627451);
ENDSEC;
END-ISO-10303-21;
